<svg width="512" height="512" viewBox="0 0 512 512" fill="none" xmlns="http://www.w3.org/2000/svg">
<path d="M64.837 458.5H447.131C476.666 458.5 499.933 435.395 499.933 406V166C499.933 136.605 476.666 113.5 447.131 113.5H64.837C35.3015 113.5 12.0352 136.605 12.0352 166V406C12.0352 435.395 35.3015 458.5 64.837 458.5ZM37.1559 166C37.1559 151.395 50.1069 138.5 64.837 138.5H447.131C461.861 138.5 474.812 151.395 474.812 166V406C474.812 420.605 461.861 433.5 447.131 433.5H64.837C50.1069 433.5 37.1559 420.605 37.1559 406V166Z" fill="black" stroke="black" stroke-width="5"/>
<path d="M313.846 126C313.846 129.573 315.055 132.742 317.35 135.023C319.644 137.303 322.825 138.5 326.406 138.5C329.988 138.5 333.169 137.303 335.463 135.023C337.757 132.742 338.967 129.573 338.967 126V86C338.967 68.6051 323.749 53.5 306.286 53.5H205.682C188.219 53.5 173.001 68.6051 173.001 86V126C173.001 129.573 174.21 132.742 176.505 135.023C178.799 137.303 181.98 138.5 185.561 138.5C189.143 138.5 192.324 137.303 194.618 135.023C196.912 132.742 198.122 129.573 198.122 126V86C198.122 83.5727 198.924 81.7421 200.151 80.5231C201.378 79.3027 203.228 78.5 205.682 78.5H306.286C308.74 78.5 310.589 79.3027 311.817 80.5231C313.043 81.7421 313.846 83.5727 313.846 86V126Z" fill="black" stroke="black" stroke-width="5"/>
<path d="M251.143 298.363L251.54 298.5H251.96H251.971H251.983H251.995H252.007H252.018H252.03H252.041H252.053H252.064H252.075H252.087H252.098H252.109H252.12H252.131H252.143H252.154H252.165H252.176H252.187H252.197H252.208H252.219H252.23H252.241H252.251H252.262H252.272H252.283H252.293H252.304H252.314H252.325H252.335H252.345H252.356H252.366H252.376H252.386H252.396H252.406H252.416H252.426H252.436H252.446H252.456H252.466H252.476H252.486H252.495H252.505H252.515H252.524H252.534H252.543H252.553H252.562H252.572H252.581H252.591H252.6H252.609H252.619H252.628H252.637H252.646H252.655H252.664H252.673H252.682H252.691H252.7H252.709H252.718H252.727H252.736H252.745H252.753H252.762H252.771H252.78H252.788H252.797H252.805H252.814H252.822H252.831H252.839H252.848H252.856H252.864H252.873H252.881H252.889H252.898H252.906H252.914H252.922H252.93H252.938H252.946H252.954H252.963H252.971H252.978H252.986H252.994H253.002H253.01H253.018H253.026H253.033H253.041H253.049H253.057H253.064H253.072H253.08H253.087H253.095H253.102H253.11H253.117H253.125H253.132H253.14H253.147H253.154H253.162H253.169H253.176H253.184H253.191H253.198H253.205H253.213H253.22H253.227H253.234H253.241H253.248H253.255H253.262H253.269H253.276H253.283H253.29H253.297H253.304H253.311H253.318H253.325H253.332H253.339H253.346H253.352H253.359H253.366H253.373H253.379H253.386H253.393H253.399H253.406H253.413H253.419H253.426H253.433H253.439H253.446H253.452H253.459H253.465H253.472H253.478H253.485H253.491H253.498H253.504H253.511H253.517H253.523H253.53H253.536H253.543H253.549H253.555H253.562H253.568H253.574H253.58H253.587H253.593H253.599H253.605H253.612H253.618H253.624H253.63H253.636H253.643H253.649H253.655H253.661H253.667H253.673H253.679H253.686H253.692H253.698H253.704H253.71H253.716H253.722H253.728H253.734H253.74H253.746H253.752H253.758H253.764H253.77H253.776H253.782H253.788H253.794H253.8H253.806H253.812H253.818H253.824H253.83H253.836H253.842H253.848H253.854H253.86H253.866H253.871H253.877H253.883H253.889H253.895H253.901H253.907H253.913H253.919H253.925H253.931H253.936H253.942H253.948H253.954H253.96H253.966H253.972H253.978H253.984H253.989H253.995H254.001H254.007H254.013H254.019H254.025H254.031H254.037H254.043H254.048H254.054H254.06H254.066H254.072H254.078H254.084H254.09H254.096H254.102H254.108H254.114H254.12H254.126H254.132H254.137H254.143H254.149H254.155H254.161H254.167H254.173H254.179H254.185H254.191H254.197H254.203H254.21H254.216H254.222H254.228H254.234H254.24H254.246H254.252H254.258H254.264H254.27H254.276H254.283H254.289H254.295H254.301H254.307H254.313H254.32H254.326H254.332H254.338H254.344H254.351H254.357H254.363H254.369H254.376H254.382H254.388H254.395H254.401H254.407H254.414H254.42H254.427H254.433H254.439H254.446H254.452H254.459H254.465H254.472H254.478H254.485H254.491H254.498H254.504H254.511H254.518H254.524H254.531H254.537H254.544H254.551H254.557H254.564H254.571H254.578H254.584H254.591H254.598H254.605H254.612H254.619H254.625H254.632H254.639H254.646H254.653H254.66H254.667H254.674H254.681H254.688H254.695H254.702H254.709H254.717H254.724H254.731H254.738H254.745H254.753H254.76H254.767H254.775H254.782H254.789H254.797H254.804H254.811H254.819H254.826H254.834H254.841H254.849H254.856H254.864H254.872H254.879H254.887H254.895H254.902H254.91H254.918H254.926H254.934H254.941H254.949H254.957H254.965H254.973H254.981H254.989H254.997H255.005H255.013H255.021H255.03H255.038H255.046H255.054H255.062H255.071H255.079H255.087H255.096H255.104H255.113H255.121H255.13H255.138H255.147H255.155H255.164H255.173H255.181H255.19H255.199H255.208H255.217H255.225H255.234H255.243H255.252H255.261H255.27H255.279H255.288H255.297H255.307H255.316H255.325H255.334H255.344H255.353H255.362H255.372H255.381H255.391H255.4H255.41H255.419H255.429H255.439H255.448H255.458H255.468H255.478H255.487H255.497H255.507H255.517H255.527H255.537H255.547H255.557H255.567H255.578H255.588H255.598H255.608H255.619H255.629H255.64H255.65H255.661H255.671H255.682H255.692H255.703H255.714H255.725H255.735H255.746H255.757H255.768H255.779H255.79H255.801H255.812H255.823H255.834H255.846H255.857H255.868H255.88H255.891H255.902H255.914H255.925H255.937H255.949H255.96H255.972H255.984H256.19H256.617L257.019 298.358L490.171 216.373C490.178 216.371 490.186 216.368 490.193 216.366C493.563 215.245 496.247 213.42 497.654 210.623C499.065 207.818 498.92 204.573 497.791 201.205C496.661 197.836 494.82 195.16 492.006 193.761C489.195 192.364 485.943 192.506 482.562 193.627L482.54 193.634L482.518 193.642L255.984 273.35L29.4495 193.642L29.4278 193.634L29.406 193.627C25.6411 192.379 21.9366 193.03 18.9557 194.511C16.0129 195.974 13.5779 198.34 12.3018 200.877L12.2216 201.036L12.1649 201.205C10.9056 204.96 11.5631 208.655 13.0563 211.623C14.5305 214.554 16.9121 216.973 19.4587 218.239L19.6026 218.31L19.7545 218.363L251.143 298.363Z" fill="black" stroke="black" stroke-width="5"/>
</svg>
