<svg width="512" height="512" viewBox="0 0 512 512" fill="none" xmlns="http://www.w3.org/2000/svg">
<g clip-path="url(#clip0)">
<path d="M290.093 318.174C291.78 317.291 293.228 316.137 294.446 314.811C359.704 296.84 408 234.248 408 160C408 109.979 376.52 14.961 375.179 10.94C373.001 4.407 366.887 0 360 0H152C145.113 0 138.999 4.407 136.821 10.94C135.48 14.961 104 109.979 104 160C104 234.248 152.296 296.84 217.554 314.81C218.772 316.137 220.22 317.29 221.907 318.173C233.067 324.019 240 335.478 240 348.08V448C240 465.645 225.645 480 208 480H176C167.163 480 160 487.164 160 496C160 504.836 167.163 512 176 512H336C344.837 512 352 504.836 352 496C352 487.164 344.837 480 336 480H304C286.355 480 272 465.645 272 448V348.08C272 335.478 278.933 324.019 290.093 318.174V318.174ZM136 160C136 124.33 155.535 58.075 163.681 32H348.322C356.468 58.068 376 124.296 376 160C376 230.58 322.168 288 256 288C189.832 288 136 230.58 136 160V160Z" fill="black"/>
<path d="M256.5 184.5C210.598 184.5 169.376 163.421 152.744 151.754C152.046 151.265 151.088 151.774 151.159 152.623C154.543 193.426 179.851 271 256.5 271C333.141 271 357.487 193.441 360.367 152.635C360.427 151.784 359.46 151.286 358.769 151.786C342.622 163.459 302.361 184.5 256.5 184.5Z" fill="black" stroke="black"/>
</g>
<defs>
<clipPath id="clip0">
<rect width="512" height="512" fill="white"/>
</clipPath>
</defs>
</svg>
