<?xml version="1.0" encoding="iso-8859-1"?>
<!-- Generator: Adobe Illustrator 19.0.0, SVG Export Plug-In . SVG Version: 6.00 Build 0)  -->
<svg version="1.1" id="Capa_1" xmlns="http://www.w3.org/2000/svg" xmlns:xlink="http://www.w3.org/1999/xlink" x="0px" y="0px"
	 viewBox="0 0 512.002 512.002"  style="enable-background:new 0 0 512.002 512.002;" xml:space="preserve">
		<path d="M507.609,4.394c-5.86-5.857-15.358-5.857-21.215,0.001l-91.38,91.38c-16.724-7.967-37.383-5.045-51.209,8.782
			l-11.665,11.665c-28.825-19.139-68.505-16.348-94.4,9.548C227.479,136.031,59.507,304.002,57.427,306.083L46.82,295.476
			c-5.857-5.858-15.355-5.858-21.213,0c-5.858,5.858-5.858,15.355,0,21.213l53.033,53.033l-42.426,42.426l-10.607-10.607
			c-5.857-5.858-15.355-5.857-21.213,0c-5.858,5.858-5.858,15.355,0,21.213c11.27,11.27,75.184,75.184,84.853,84.853
			c5.857,5.858,15.355,5.858,21.213,0c5.858-5.858,5.858-15.355,0-21.213l-10.606-10.606l42.427-42.427l53.033,53.033
			c5.857,5.858,15.355,5.858,21.213,0c5.858-5.858,5.858-15.355,0-21.213l-10.606-10.607
			c21.384-21.384,150.864-150.865,180.302-180.303c0.003-0.003,0.007-0.006,0.01-0.009c0.006-0.006,0.012-0.014,0.018-0.02
			c25.907-25.925,28.641-65.598,9.529-94.381l11.666-11.665c14.119-14.118,16.642-34.847,8.802-51.228l91.361-91.361
			C513.466,19.749,513.466,10.252,507.609,4.394z M121.067,284.869l21.213,21.213l-42.427,42.427L78.64,327.296L121.067,284.869z
			 M78.64,454.575l-21.214-21.213l42.427-42.427l21.214,21.213L78.64,454.575z M142.28,390.936l-21.214-21.214l42.427-42.427
			l21.214,21.214L142.28,390.936z M184.705,433.362l-21.213-21.213l42.427-42.427l21.213,21.213L184.705,433.362z M290.772,327.296
			l-31.819-31.82c-5.857-5.859-15.355-5.857-21.213,0c-5.858,5.858-5.858,15.355,0,21.213l31.819,31.82l-21.213,21.213
			L142.28,263.656l63.639-63.64l106.066,106.066L290.772,327.296z M373.819,240.637l-30.014-30.014
			c-5.857-5.858-15.355-5.857-21.213,0c-5.858,5.858-5.858,15.355,0,21.213l31.82,31.819l-21.213,21.213L227.132,178.803
			l31.82-31.82c17.585-17.585,46.049-17.588,63.638-0.001c0,0,0.001,0.001,0.001,0.002c0.001,0.001,0.002,0.001,0.002,0.001
			l42.424,42.425C379.126,203.519,381.666,224.245,373.819,240.637z M386.232,146.983l-10.607,10.607l-21.213-21.214l10.606-10.606
			c5.85-5.848,15.364-5.849,21.214,0C392.094,131.633,392.094,141.121,386.232,146.983z"/>
</svg>
