<?xml version='1.0' encoding='iso-8859-1'?>
<svg version="1.1" xmlns="http://www.w3.org/2000/svg" viewBox="0 0 295.82 295.82" xmlns:xlink="http://www.w3.org/1999/xlink" enable-background="new 0 0 295.82 295.82">
  <g>
    <path d="m147.91,0c-81.786,0-147.91,66.124-147.91,147.91s66.124,147.91 147.91,147.91 147.91-66.124 147.91-147.91-66.124-147.91-147.91-147.91zm130.057,139.21h-43.277c-1.514-45.783-14.756-85.579-34.82-110.742 43.399,19.211 74.739,61.496 78.097,110.742zm-138.757-120.66v120.66h-60.66c2.226-61.949 27.98-112.864 60.66-120.66zm0,138.061v120.66c-32.679-7.796-58.433-58.694-60.66-120.66h60.66zm17.401,120.66v-120.66h60.66c-2.227,61.948-27.981,112.864-60.66,120.66zm0-138.061v-120.66c32.679,7.796 58.433,58.694 60.66,120.66h-60.66zm-60.139-110.985c-20.359,25.162-33.793,65.585-35.342,110.985h-43.276c3.358-49.437 34.941-91.896 78.618-110.985zm-78.618,128.386h43.276c1.584,46.113 15.504,86.397 36.456,111.507-44.251-18.846-76.339-61.635-79.732-111.507zm181.912,110.776c20.133-24.849 33.428-64.68 34.924-110.776h43.277c-3.358,49.28-34.751,91.6-78.201,110.776z"/>
  </g>
</svg>
