<svg width="549" fill="none" xmlns="http://www.w3.org/2000/svg" height="90" viewBox="0 0 549 90">
<path d="M37.341 71.81C32.589 71.81 28.242 71.027 24.3 69.461C20.358 67.841 16.956 65.6 14.094 62.738C11.286 59.822 9.099 56.393 7.533 52.451C5.967 48.455 5.184 44.081 5.184 39.329C5.184 34.577 5.967 30.23 7.533 26.288C9.099 22.346 11.286 18.944 14.094 16.082C16.956 13.166 20.358 10.925 24.3 9.359C28.242 7.739 32.589 6.929 37.341 6.929C42.093 6.929 46.413 7.739 50.301 9.359C54.243 10.925 57.645 13.166 60.507 16.082C63.369 18.944 65.583 22.346 67.149 26.288C68.715 30.23 69.498 34.577 69.498 39.329C69.498 44.081 68.715 48.455 67.149 52.451C65.583 56.393 63.369 59.822 60.507 62.738C57.645 65.6 54.243 67.841 50.301 69.461C46.413 71.027 42.093 71.81 37.341 71.81ZM37.341 64.196C40.851 64.196 44.064 63.575 46.98 62.333C49.95 61.037 52.515 59.282 54.675 57.068C56.835 54.8 58.482 52.154 59.616 49.13C60.804 46.106 61.398 42.839 61.398 39.329C61.398 35.819 60.804 32.552 59.616 29.528C58.482 26.504 56.835 23.885 54.675 21.671C52.515 19.403 49.95 17.648 46.98 16.406C44.064 15.164 40.851 14.543 37.341 14.543C33.831 14.543 30.591 15.164 27.621 16.406C24.705 17.648 22.167 19.403 20.007 21.671C17.901 23.885 16.254 26.504 15.066 29.528C13.878 32.552 13.284 35.819 13.284 39.329C13.284 42.839 13.878 46.106 15.066 49.13C16.254 52.154 17.901 54.8 20.007 57.068C22.167 59.282 24.705 61.037 27.621 62.333C30.591 63.575 33.831 64.196 37.341 64.196ZM98.5688 57.716C94.6808 57.716 91.4678 56.825 88.9298 55.043C86.3918 53.261 84.5018 50.831 83.2598 47.753C82.0718 44.621 81.4778 41.03 81.4778 36.98V30.824C81.4778 29.582 81.8558 28.583 82.6118 27.827C83.4218 27.071 84.4208 26.693 85.6088 26.693C86.8508 26.693 87.8498 27.071 88.6058 27.827C89.3618 28.583 89.7398 29.582 89.7398 30.824V36.98C89.7398 40.868 90.4958 44.054 92.0078 46.538C93.5738 49.022 96.3008 50.264 100.189 50.264C103.267 50.264 105.778 49.751 107.722 48.725C109.72 47.699 110.719 46.376 110.719 44.756H115.012C115.012 47.294 114.31 49.535 112.906 51.479C111.502 53.423 109.558 54.962 107.074 56.096C104.644 57.176 101.809 57.716 98.5688 57.716ZM114.85 71C113.662 71 112.663 70.622 111.853 69.866C111.097 69.056 110.719 68.057 110.719 66.869V30.824C110.719 29.582 111.097 28.583 111.853 27.827C112.663 27.071 113.662 26.693 114.85 26.693C116.092 26.693 117.091 27.071 117.847 27.827C118.603 28.583 118.981 29.582 118.981 30.824V66.869C118.981 68.057 118.603 69.056 117.847 69.866C117.091 70.622 116.092 71 114.85 71ZM155.403 71.405C151.677 71.405 148.329 70.622 145.359 69.056C142.443 67.436 140.121 65.087 138.393 62.009C136.719 58.931 135.882 55.151 135.882 50.669V30.743C135.882 29.555 136.26 28.583 137.016 27.827C137.826 27.017 138.825 26.612 140.013 26.612C141.201 26.612 142.173 27.017 142.929 27.827C143.739 28.583 144.144 29.555 144.144 30.743V50.669C144.144 53.693 144.711 56.204 145.845 58.202C146.979 60.146 148.518 61.604 150.462 62.576C152.406 63.494 154.593 63.953 157.023 63.953C159.345 63.953 161.397 63.494 163.179 62.576C165.015 61.658 166.473 60.416 167.553 58.85C168.633 57.284 169.173 55.529 169.173 53.585H174.276C174.276 56.933 173.439 59.957 171.765 62.657C170.145 65.357 167.904 67.49 165.042 69.056C162.234 70.622 159.021 71.405 155.403 71.405ZM173.304 71C172.116 71 171.117 70.622 170.307 69.866C169.551 69.056 169.173 68.057 169.173 66.869V30.743C169.173 29.501 169.551 28.502 170.307 27.746C171.117 26.99 172.116 26.612 173.304 26.612C174.546 26.612 175.545 26.99 176.301 27.746C177.057 28.502 177.435 29.501 177.435 30.743V66.869C177.435 68.057 177.057 69.056 176.301 69.866C175.545 70.622 174.546 71 173.304 71ZM237.022 71.486C233.944 71.486 231.217 70.811 228.841 69.461C226.465 68.111 224.602 66.14 223.252 63.548C221.956 60.902 221.308 57.716 221.308 53.99V30.824C221.308 29.582 221.686 28.583 222.442 27.827C223.252 27.071 224.251 26.693 225.439 26.693C226.681 26.693 227.68 27.071 228.436 27.827C229.192 28.583 229.57 29.582 229.57 30.824V53.99C229.57 56.258 229.948 58.148 230.704 59.66C231.46 61.118 232.513 62.225 233.863 62.981C235.267 63.683 236.86 64.034 238.642 64.034C241.504 64.034 243.826 63.062 245.608 61.118C247.444 59.174 248.362 56.717 248.362 53.747H251.845C251.845 57.203 251.197 60.281 249.901 62.981C248.659 65.627 246.931 67.706 244.717 69.218C242.503 70.73 239.938 71.486 237.022 71.486ZM210.049 71.486C206.971 71.486 204.244 70.811 201.868 69.461C199.546 68.111 197.71 66.14 196.36 63.548C195.01 60.902 194.335 57.716 194.335 53.99V30.824C194.335 29.582 194.713 28.583 195.469 27.827C196.279 27.071 197.278 26.693 198.466 26.693C199.708 26.693 200.707 27.071 201.463 27.827C202.219 28.583 202.597 29.582 202.597 30.824V53.99C202.597 56.258 202.975 58.148 203.731 59.66C204.541 61.118 205.621 62.225 206.971 62.981C208.321 63.683 209.887 64.034 211.669 64.034C214.531 64.034 216.853 63.062 218.635 61.118C220.417 59.174 221.308 56.717 221.308 53.747H224.791C224.791 57.203 224.17 60.281 222.928 62.981C221.686 65.627 219.958 67.706 217.744 69.218C215.53 70.73 212.965 71.486 210.049 71.486ZM260.593 85.418C259.459 85.418 258.514 85.013 257.758 84.203C257.002 83.393 256.624 82.394 256.624 81.206V71H255.409C252.979 71 251.197 70.433 250.063 69.299C248.929 68.165 248.362 66.383 248.362 63.953V30.743C248.362 29.501 248.74 28.502 249.496 27.746C250.306 26.99 251.305 26.612 252.493 26.612C253.735 26.612 254.734 26.99 255.49 27.746C256.246 28.502 256.624 29.501 256.624 30.743V64.034H260.026C261.268 64.034 262.267 64.439 263.023 65.249C263.833 66.005 264.238 67.004 264.238 68.246V81.206C264.238 82.394 263.887 83.393 263.185 84.203C262.537 85.013 261.673 85.418 260.593 85.418ZM296.802 71.324C292.32 71.324 288.324 70.379 284.814 68.489C281.358 66.545 278.631 63.899 276.633 60.551C274.689 57.149 273.717 53.261 273.717 48.887C273.717 44.459 274.635 40.571 276.471 37.223C278.361 33.821 280.953 31.175 284.247 29.285C287.541 27.341 291.321 26.369 295.587 26.369C299.799 26.369 303.417 27.314 306.441 29.204C309.465 31.04 311.76 33.605 313.326 36.899C314.946 40.139 315.756 43.892 315.756 48.158C315.756 49.184 315.405 50.048 314.703 50.75C314.001 51.398 313.11 51.722 312.03 51.722H279.387V45.242H311.787L308.466 47.51C308.412 44.81 307.872 42.407 306.846 40.301C305.82 38.141 304.362 36.44 302.472 35.198C300.582 33.956 298.287 33.335 295.587 33.335C292.509 33.335 289.863 34.01 287.649 35.36C285.489 36.71 283.842 38.573 282.708 40.949C281.574 43.271 281.007 45.917 281.007 48.887C281.007 51.857 281.682 54.503 283.032 56.825C284.382 59.147 286.245 60.983 288.621 62.333C290.997 63.683 293.724 64.358 296.802 64.358C298.476 64.358 300.177 64.061 301.905 63.467C303.687 62.819 305.118 62.09 306.198 61.28C307.008 60.686 307.872 60.389 308.79 60.389C309.762 60.335 310.599 60.605 311.301 61.199C312.219 62.009 312.705 62.9 312.759 63.872C312.813 64.844 312.381 65.681 311.463 66.383C309.627 67.841 307.332 69.029 304.578 69.947C301.878 70.865 299.286 71.324 296.802 71.324ZM366.794 71C365.606 71 364.607 70.622 363.797 69.866C363.041 69.056 362.663 68.057 362.663 66.869V30.824C362.663 29.582 363.041 28.583 363.797 27.827C364.607 27.071 365.606 26.693 366.794 26.693C368.036 26.693 369.008 27.071 369.71 27.827C370.412 28.583 370.763 29.582 370.763 30.824V66.869C370.763 68.057 370.412 69.056 369.71 69.866C369.008 70.622 368.036 71 366.794 71ZM333.503 71C332.315 71 331.343 70.622 330.587 69.866C329.885 69.056 329.534 68.057 329.534 66.869V30.824C329.534 29.582 329.885 28.583 330.587 27.827C331.343 27.071 332.315 26.693 333.503 26.693C334.745 26.693 335.744 27.071 336.5 27.827C337.256 28.583 337.634 29.582 337.634 30.824V66.869C337.634 68.057 337.256 69.056 336.5 69.866C335.744 70.622 334.745 71 333.503 71ZM336.581 51.641V44.351H365.012V51.641H336.581ZM407.25 71.405C403.524 71.405 400.176 70.622 397.206 69.056C394.29 67.436 391.968 65.087 390.24 62.009C388.566 58.931 387.729 55.151 387.729 50.669V30.743C387.729 29.555 388.107 28.583 388.863 27.827C389.673 27.017 390.672 26.612 391.86 26.612C393.048 26.612 394.02 27.017 394.776 27.827C395.586 28.583 395.991 29.555 395.991 30.743V50.669C395.991 53.693 396.558 56.204 397.692 58.202C398.826 60.146 400.365 61.604 402.309 62.576C404.253 63.494 406.44 63.953 408.87 63.953C411.192 63.953 413.244 63.494 415.026 62.576C416.862 61.658 418.32 60.416 419.4 58.85C420.48 57.284 421.02 55.529 421.02 53.585H426.123C426.123 56.933 425.286 59.957 423.612 62.657C421.992 65.357 419.751 67.49 416.889 69.056C414.081 70.622 410.868 71.405 407.25 71.405ZM425.151 71C423.963 71 422.964 70.622 422.154 69.866C421.398 69.056 421.02 68.057 421.02 66.869V30.743C421.02 29.501 421.398 28.502 422.154 27.746C422.964 26.99 423.963 26.612 425.151 26.612C426.393 26.612 427.392 26.99 428.148 27.746C428.904 28.502 429.282 29.501 429.282 30.743V66.869C429.282 68.057 428.904 69.056 428.148 69.866C427.392 70.622 426.393 71 425.151 71ZM467.89 71.324C463.408 71.324 459.412 70.379 455.902 68.489C452.446 66.545 449.719 63.899 447.721 60.551C445.777 57.149 444.805 53.261 444.805 48.887C444.805 44.459 445.723 40.571 447.559 37.223C449.449 33.821 452.041 31.175 455.335 29.285C458.629 27.341 462.409 26.369 466.675 26.369C470.887 26.369 474.505 27.314 477.529 29.204C480.553 31.04 482.848 33.605 484.414 36.899C486.034 40.139 486.844 43.892 486.844 48.158C486.844 49.184 486.493 50.048 485.791 50.75C485.089 51.398 484.198 51.722 483.118 51.722H450.475V45.242H482.875L479.554 47.51C479.5 44.81 478.96 42.407 477.934 40.301C476.908 38.141 475.45 36.44 473.56 35.198C471.67 33.956 469.375 33.335 466.675 33.335C463.597 33.335 460.951 34.01 458.737 35.36C456.577 36.71 454.93 38.573 453.796 40.949C452.662 43.271 452.095 45.917 452.095 48.887C452.095 51.857 452.77 54.503 454.12 56.825C455.47 59.147 457.333 60.983 459.709 62.333C462.085 63.683 464.812 64.358 467.89 64.358C469.564 64.358 471.265 64.061 472.993 63.467C474.775 62.819 476.206 62.09 477.286 61.28C478.096 60.686 478.96 60.389 479.878 60.389C480.85 60.335 481.687 60.605 482.389 61.199C483.307 62.009 483.793 62.9 483.847 63.872C483.901 64.844 483.469 65.681 482.551 66.383C480.715 67.841 478.42 69.029 475.666 69.947C472.966 70.865 470.374 71.324 467.89 71.324Z" fill="#fff"/>
<path d="M24.3 69.461L23.5398 71.3109L23.5507 71.3154L23.5616 71.3197L24.3 69.461ZM14.094 62.738L12.6534 64.1253L12.6664 64.1389L12.6798 64.1522L14.094 62.738ZM7.533 52.451L5.67087 53.1808L5.6743 53.1894L7.533 52.451ZM7.533 26.288L5.6743 25.5496L5.6743 25.5496L7.533 26.288ZM14.094 16.082L12.6666 14.6811L12.6664 14.6813L14.094 16.082ZM24.3 9.359L25.0384 11.2177L25.0493 11.2134L25.0602 11.2089L24.3 9.359ZM50.301 9.359L49.5318 11.2052L49.5471 11.2116L49.5626 11.2177L50.301 9.359ZM60.507 16.082L59.0796 17.4829L59.0862 17.4896L59.0928 17.4962L60.507 16.082ZM67.149 26.288L69.0077 25.5496L69.0077 25.5496L67.149 26.288ZM67.149 52.451L69.0077 53.1894L69.0111 53.1807L67.149 52.451ZM60.507 62.738L61.9212 64.1522L61.9278 64.1456L61.9344 64.1389L60.507 62.738ZM50.301 69.461L51.0482 71.3162L51.0612 71.3109L50.301 69.461ZM46.98 62.333L47.7637 64.173L47.7718 64.1696L47.7799 64.1661L46.98 62.333ZM54.675 57.068L56.1066 58.4646L56.115 58.456L56.1233 58.4473L54.675 57.068ZM59.616 49.13L57.7545 48.3987L57.7488 48.4132L57.7433 48.4278L59.616 49.13ZM59.616 29.528L57.7433 30.2302L57.7488 30.2448L57.7545 30.2593L59.616 29.528ZM54.675 21.671L53.2267 23.0503L53.235 23.059L53.2434 23.0676L54.675 21.671ZM46.98 16.406L46.1963 18.2461L46.2084 18.2512L46.98 16.406ZM27.621 16.406L26.8494 14.5608L26.8373 14.5659L27.621 16.406ZM20.007 21.671L18.5587 20.2917L18.5579 20.2926L20.007 21.671ZM20.007 57.068L18.5414 58.4289L18.5582 58.447L18.5754 58.4646L20.007 57.068ZM27.621 62.333L26.8087 64.1606L26.829 64.1696L26.8494 64.1782L27.621 62.333ZM37.341 69.81C32.8115 69.81 28.7188 69.0644 25.0384 67.6023L23.5616 71.3197C27.7652 72.9896 32.3665 73.81 37.341 73.81V69.81ZM25.0602 67.6111C21.3497 66.0863 18.1734 63.9889 15.5082 61.3238L12.6798 64.1522C15.7386 67.2111 19.3663 69.5957 23.5398 71.3109L25.0602 67.6111ZM15.5346 61.3507C12.9154 58.6307 10.8665 55.4249 9.3917 51.7126L5.6743 53.1894C7.33153 57.3611 9.65664 61.0133 12.6534 64.1253L15.5346 61.3507ZM9.39511 51.7213C7.92951 47.9814 7.184 43.858 7.184 39.329H3.184C3.184 44.304 4.00449 48.9286 5.67089 53.1807L9.39511 51.7213ZM7.184 39.329C7.184 34.7995 7.92963 30.7068 9.3917 27.0264L5.6743 25.5496C4.00437 29.7532 3.184 34.3545 3.184 39.329H7.184ZM9.3917 27.0264C10.8653 23.3171 12.9106 20.1439 15.5216 17.4827L12.6664 14.6813C9.66142 17.7441 7.33274 21.3749 5.6743 25.5496L9.3917 27.0264ZM15.5214 17.4829C18.1806 14.7735 21.3453 12.6848 25.0384 11.2177L23.5616 7.50029C19.3707 9.16519 15.7314 11.5585 12.6666 14.6811L15.5214 17.4829ZM25.0602 11.2089C28.7348 9.69879 32.8198 8.929 37.341 8.929V4.929C32.3582 4.929 27.7492 5.7792 23.5398 7.50912L25.0602 11.2089ZM37.341 8.929C41.8627 8.929 45.9168 9.69893 49.5318 11.2052L51.0702 7.51284C46.9092 5.77906 42.3233 4.929 37.341 4.929V8.929ZM49.5626 11.2177C53.2557 12.6848 56.4204 14.7735 59.0796 17.4829L61.9344 14.6811C58.8696 11.5585 55.2303 9.16519 51.0394 7.50029L49.5626 11.2177ZM59.0928 17.4962C61.7529 20.1564 63.82 23.3252 65.2903 27.0264L69.0077 25.5496C67.346 21.3668 64.9851 17.7316 61.9212 14.6678L59.0928 17.4962ZM65.2903 27.0264C66.7524 30.7068 67.498 34.7995 67.498 39.329H71.498C71.498 34.3545 70.6776 29.7532 69.0077 25.5496L65.2903 27.0264ZM67.498 39.329C67.498 43.858 66.7525 47.9814 65.2869 51.7213L69.0111 53.1807C70.6775 48.9286 71.498 44.304 71.498 39.329H67.498ZM65.2903 51.7126C63.8187 55.4169 61.7481 58.6183 59.0796 61.3371L61.9344 64.1389C64.9899 61.0257 67.3473 57.3691 69.0077 53.1894L65.2903 51.7126ZM59.0928 61.3238C56.4276 63.9889 53.2513 66.0863 49.5408 67.6111L51.0612 71.3109C55.2347 69.5957 58.8624 67.2111 61.9212 64.1522L59.0928 61.3238ZM49.5538 67.6058C45.9329 69.0642 41.871 69.81 37.341 69.81V73.81C42.315 73.81 46.8931 72.9898 51.0482 71.3162L49.5538 67.6058ZM37.341 66.196C41.0913 66.196 44.5745 65.5314 47.7637 64.173L46.1963 60.493C43.5535 61.6186 40.6107 62.196 37.341 62.196V66.196ZM47.7799 64.1661C50.9752 62.7718 53.7576 60.8723 56.1066 58.4646L53.2434 55.6714C51.2724 57.6917 48.9248 59.3022 46.1801 60.4999L47.7799 64.1661ZM56.1233 58.4473C58.4747 55.9783 60.2632 53.1001 61.4887 49.8322L57.7433 48.4278C56.7008 51.2078 55.1953 53.6217 53.2267 55.6887L56.1233 58.4473ZM61.4775 49.8613C62.7641 46.5862 63.398 43.0691 63.398 39.329H59.398C59.398 42.6089 58.8439 45.6258 57.7545 48.3987L61.4775 49.8613ZM63.398 39.329C63.398 35.5889 62.7641 32.0718 61.4775 28.7967L57.7545 30.2593C58.8439 33.0322 59.398 36.0491 59.398 39.329H63.398ZM61.4887 28.8258C60.2617 25.5539 58.4687 22.6955 56.1066 20.2743L53.2434 23.0676C55.2013 25.0745 56.7023 27.4541 57.7433 30.2302L61.4887 28.8258ZM56.1233 20.2917C53.767 17.8176 50.9697 15.9066 47.7516 14.5608L46.2084 18.2512C48.9303 19.3894 51.263 20.9884 53.2267 23.0503L56.1233 20.2917ZM47.7637 14.5659C44.5745 13.2076 41.0913 12.543 37.341 12.543V16.543C40.6107 16.543 43.5535 17.1204 46.1963 18.246L47.7637 14.5659ZM37.341 12.543C33.5902 12.543 30.0851 13.2077 26.8494 14.5608L28.3926 18.2512C31.0969 17.1203 34.0718 16.543 37.341 16.543V12.543ZM26.8373 14.5659C23.6738 15.9134 20.9089 17.824 18.5587 20.2917L21.4553 23.0503C23.4251 20.9819 25.7362 19.3826 28.4047 18.246L26.8373 14.5659ZM18.5579 20.2926C16.2629 22.7053 14.4809 25.5478 13.2045 28.7967L16.9275 30.2593C18.0271 27.4602 19.5391 25.0647 21.4561 23.0494L18.5579 20.2926ZM13.2045 28.7967C11.9179 32.0718 11.284 35.5889 11.284 39.329H15.284C15.284 36.0491 15.8381 33.0322 16.9275 30.2593L13.2045 28.7967ZM11.284 39.329C11.284 43.0691 11.9179 46.5862 13.2045 49.8613L16.9275 48.3987C15.8381 45.6258 15.284 42.6089 15.284 39.329H11.284ZM13.2045 49.8613C14.4793 53.1063 16.2569 55.9686 18.5414 58.4289L21.4726 55.7071C19.5451 53.6314 18.0287 51.2017 16.9275 48.3987L13.2045 49.8613ZM18.5754 58.4646C20.9183 60.8661 23.6683 62.7649 26.8087 64.1606L28.4333 60.5054C25.7417 59.3091 23.4157 57.6979 21.4386 55.6714L18.5754 58.4646ZM26.8494 64.1782C30.0851 65.5313 33.5902 66.196 37.341 66.196V62.196C34.0718 62.196 31.0969 61.6187 28.3926 60.4878L26.8494 64.1782ZM88.9298 55.043L90.079 53.4062L90.079 53.4062L88.9298 55.043ZM83.2598 47.753L81.3898 48.4623L81.3972 48.4819L81.4051 48.5014L83.2598 47.753ZM82.6118 27.827L81.2471 26.3649L81.2219 26.3884L81.1976 26.4128L82.6118 27.827ZM92.0078 46.538L90.2994 47.5779L90.3075 47.5913L90.3159 47.6046L92.0078 46.538ZM107.722 48.725L106.808 46.9459L106.798 46.951L106.788 46.9562L107.722 48.725ZM110.719 44.756V42.756H108.719V44.756H110.719ZM115.012 44.756H117.012V42.756H115.012V44.756ZM112.906 51.479L114.527 52.65L114.527 52.65L112.906 51.479ZM107.074 56.096L107.886 57.9236L107.895 57.9195L107.904 57.9154L107.074 56.096ZM111.853 69.866L110.391 71.2306L110.438 71.2811L110.488 71.3281L111.853 69.866ZM111.853 27.827L110.488 26.3649L110.463 26.3884L110.439 26.4128L111.853 27.827ZM117.847 69.866L119.261 71.2802L119.285 71.2558L119.309 71.2306L117.847 69.866ZM98.5688 55.716C94.9871 55.716 92.2036 54.8979 90.079 53.4062L87.7805 56.6798C90.7319 58.7521 94.3745 59.716 98.5688 59.716V55.716ZM90.079 53.4062C87.8795 51.8618 86.2226 49.7509 85.1145 47.0046L81.4051 48.5014C82.7809 51.9111 84.9041 54.6602 87.7805 56.6798L90.079 53.4062ZM85.1298 47.0437C84.0436 44.1802 83.4778 40.8369 83.4778 36.98H79.4778C79.4778 41.2231 80.0999 45.0618 81.3898 48.4623L85.1298 47.0437ZM83.4778 36.98V30.824H79.4778V36.98H83.4778ZM83.4778 30.824C83.4778 30.0197 83.7059 29.5613 84.026 29.2412L81.1976 26.4128C80.0056 27.6047 79.4778 29.1443 79.4778 30.824H83.4778ZM83.9764 29.2891C84.3878 28.9052 84.8873 28.693 85.6088 28.693V24.693C83.9542 24.693 82.4558 25.2368 81.2471 26.3649L83.9764 29.2891ZM85.6088 28.693C86.4131 28.693 86.8715 28.9211 87.1916 29.2412L90.02 26.4128C88.8281 25.2209 87.2885 24.693 85.6088 24.693V28.693ZM87.1916 29.2412C87.5116 29.5613 87.7398 30.0197 87.7398 30.824H91.7398C91.7398 29.1443 91.2119 27.6047 90.02 26.4128L87.1916 29.2412ZM87.7398 30.824V36.98H91.7398V30.824H87.7398ZM87.7398 36.98C87.7398 41.1148 88.5427 44.6919 90.2994 47.5779L93.7162 45.4981C92.4489 43.4161 91.7398 40.6212 91.7398 36.98H87.7398ZM90.3159 47.6046C92.3641 50.8534 95.8638 52.264 100.189 52.264V48.264C96.7377 48.264 94.7834 47.1906 93.6996 45.4714L90.3159 47.6046ZM100.189 52.264C103.469 52.264 106.332 51.7201 108.655 50.4938L106.788 46.9562C105.224 47.7819 103.064 48.264 100.189 48.264V52.264ZM108.635 50.5041C111.005 49.2874 112.719 47.4084 112.719 44.756H108.719C108.719 45.3436 108.435 46.1106 106.808 46.9459L108.635 50.5041ZM110.719 46.756H115.012V42.756H110.719V46.756ZM113.012 44.756C113.012 46.8996 112.427 48.7254 111.284 50.308L114.527 52.65C116.192 50.3446 117.012 47.6884 117.012 44.756H113.012ZM111.284 50.308C110.11 51.9339 108.456 53.2663 106.243 54.2766L107.904 57.9154C110.659 56.6577 112.893 54.9121 114.527 52.65L111.284 50.308ZM106.261 54.2684C104.137 55.2127 101.589 55.716 98.5688 55.716V59.716C102.029 59.716 105.151 59.1393 107.886 57.9236L106.261 54.2684ZM114.85 69C114.128 69 113.629 68.7878 113.217 68.4039L110.488 71.3281C111.697 72.4562 113.195 73 114.85 73V69ZM113.315 68.5014C112.931 68.09 112.719 67.5905 112.719 66.869H108.719C108.719 68.5235 109.263 70.022 110.391 71.2306L113.315 68.5014ZM112.719 66.869V30.824H108.719V66.869H112.719ZM112.719 30.824C112.719 30.0197 112.947 29.5613 113.267 29.2412L110.439 26.4128C109.247 27.6047 108.719 29.1443 108.719 30.824H112.719ZM113.217 29.2891C113.629 28.9052 114.128 28.693 114.85 28.693V24.693C113.195 24.693 111.697 25.2368 110.488 26.3649L113.217 29.2891ZM114.85 28.693C115.654 28.693 116.112 28.9211 116.433 29.2412L119.261 26.4128C118.069 25.2209 116.529 24.693 114.85 24.693V28.693ZM116.433 29.2412C116.753 29.5613 116.981 30.0197 116.981 30.824H120.981C120.981 29.1443 120.453 27.6047 119.261 26.4128L116.433 29.2412ZM116.981 30.824V66.869H120.981V30.824H116.981ZM116.981 66.869C116.981 67.5905 116.769 68.09 116.385 68.5014L119.309 71.2306C120.437 70.022 120.981 68.5235 120.981 66.869H116.981ZM116.433 68.4518C116.112 68.7719 115.654 69 114.85 69V73C116.529 73 118.069 72.4721 119.261 71.2802L116.433 68.4518ZM145.359 69.056L144.388 70.8043L144.407 70.8149L144.426 70.8251L145.359 69.056ZM138.393 62.009L136.636 62.9645L136.642 62.9763L136.649 62.9881L138.393 62.009ZM137.016 27.827L135.602 26.4128L135.602 26.4128L137.016 27.827ZM142.929 27.827L141.467 29.1916L141.514 29.2421L141.564 29.2891L142.929 27.827ZM145.845 58.202L144.106 59.1892L144.111 59.1995L144.117 59.2097L145.845 58.202ZM150.462 62.576L149.567 64.3649L149.588 64.3749L149.608 64.3845L150.462 62.576ZM163.179 62.576L162.284 60.7871L162.274 60.7925L162.263 60.7981L163.179 62.576ZM167.553 58.85L169.199 59.9855L169.199 59.9855L167.553 58.85ZM169.173 53.585V51.585H167.173V53.585H169.173ZM174.276 53.585H176.276V51.585H174.276V53.585ZM171.765 62.657L170.065 61.6031L170.057 61.6155L170.05 61.628L171.765 62.657ZM165.042 69.056L164.082 67.3015L164.075 67.3053L164.068 67.3093L165.042 69.056ZM170.307 69.866L168.845 71.2306L168.892 71.2811L168.942 71.3281L170.307 69.866ZM170.307 27.746L168.942 26.2839L168.917 26.3074L168.893 26.3318L170.307 27.746ZM176.301 69.866L177.715 71.2802L177.74 71.2558L177.763 71.2306L176.301 69.866ZM155.403 69.405C151.966 69.405 148.944 68.6852 146.292 67.2869L144.426 70.8251C147.714 72.5588 151.388 73.405 155.403 73.405V69.405ZM146.33 67.3077C143.757 65.8782 141.695 63.8045 140.137 61.0299L136.649 62.9881C138.547 66.3695 141.129 68.9938 144.388 70.8043L146.33 67.3077ZM140.15 61.0535C138.674 58.3394 137.882 54.9081 137.882 50.669H133.882C133.882 55.3939 134.764 59.5226 136.636 62.9645L140.15 61.0535ZM137.882 50.669V30.743H133.882V50.669H137.882ZM137.882 30.743C137.882 30.0208 138.093 29.5788 138.43 29.2412L135.602 26.4128C134.427 27.5872 133.882 29.0892 133.882 30.743H137.882ZM138.43 29.2412C138.85 28.8215 139.333 28.612 140.013 28.612V24.612C138.316 24.612 136.802 25.2125 135.602 26.4128L138.43 29.2412ZM140.013 28.612C140.691 28.612 141.119 28.8185 141.467 29.1916L144.391 26.4624C143.227 25.2155 141.71 24.612 140.013 24.612V28.612ZM141.564 29.2891C141.937 29.6373 142.144 30.0646 142.144 30.743H146.144C146.144 29.0454 145.54 27.5287 144.294 26.3649L141.564 29.2891ZM142.144 30.743V50.669H146.144V30.743H142.144ZM142.144 50.669C142.144 53.9329 142.755 56.8097 144.106 59.1892L147.584 57.2148C146.667 55.5983 146.144 53.4531 146.144 50.669H142.144ZM144.117 59.2097C145.44 61.477 147.263 63.2126 149.567 64.3649L151.356 60.7871C149.773 59.9954 148.518 58.815 147.572 57.1943L144.117 59.2097ZM149.608 64.3845C151.852 65.4441 154.336 65.953 157.023 65.953V61.953C154.85 61.953 152.96 61.5439 151.316 60.7675L149.608 64.3845ZM157.023 65.953C159.613 65.953 161.988 65.4394 164.095 64.3539L162.263 60.7981C160.806 61.5486 159.077 61.953 157.023 61.953V65.953ZM164.073 64.3649C166.187 63.3082 167.913 61.8509 169.199 59.9855L165.907 57.7145C165.033 58.9811 163.843 60.0078 162.284 60.7871L164.073 64.3649ZM169.199 59.9855C170.515 58.0779 171.173 55.9251 171.173 53.585H167.173C167.173 55.1329 166.751 56.4901 165.907 57.7145L169.199 59.9855ZM169.173 55.585H174.276V51.585H169.173V55.585ZM172.276 53.585C172.276 56.5816 171.532 59.237 170.065 61.6031L173.465 63.7109C175.346 60.677 176.276 57.2844 176.276 53.585H172.276ZM170.05 61.628C168.619 64.0121 166.644 65.8995 164.082 67.3015L166.002 70.8105C169.164 69.0805 171.67 66.7019 173.48 63.686L170.05 61.628ZM164.068 67.3093C161.593 68.6892 158.723 69.405 155.403 69.405V73.405C159.318 73.405 162.874 72.5548 166.016 70.8027L164.068 67.3093ZM173.304 69C172.582 69 172.083 68.7878 171.672 68.4039L168.942 71.3281C170.151 72.4562 171.649 73 173.304 73V69ZM171.769 68.5014C171.385 68.09 171.173 67.5905 171.173 66.869H167.173C167.173 68.5235 167.717 70.022 168.845 71.2306L171.769 68.5014ZM171.173 66.869V30.743H167.173V66.869H171.173ZM171.173 30.743C171.173 29.9387 171.401 29.4803 171.721 29.1602L168.893 26.3318C167.701 27.5237 167.173 29.0633 167.173 30.743H171.173ZM171.672 29.2081C172.083 28.8242 172.582 28.612 173.304 28.612V24.612C171.649 24.612 170.151 25.1558 168.942 26.2839L171.672 29.2081ZM173.304 28.612C174.108 28.612 174.567 28.8401 174.887 29.1602L177.715 26.3318C176.523 25.1399 174.984 24.612 173.304 24.612V28.612ZM174.887 29.1602C175.207 29.4803 175.435 29.9387 175.435 30.743H179.435C179.435 29.0633 178.907 27.5237 177.715 26.3318L174.887 29.1602ZM175.435 30.743V66.869H179.435V30.743H175.435ZM175.435 66.869C175.435 67.5905 175.223 68.09 174.839 68.5014L177.763 71.2306C178.891 70.022 179.435 68.5235 179.435 66.869H175.435ZM174.887 68.4518C174.567 68.7719 174.108 69 173.304 69V73C174.984 73 176.523 72.4721 177.715 71.2802L174.887 68.4518ZM228.841 69.461L227.853 71.1999L227.853 71.1999L228.841 69.461ZM223.252 63.548L221.456 64.4277L221.467 64.4499L221.478 64.4719L223.252 63.548ZM222.442 27.827L221.077 26.3649L221.052 26.3884L221.028 26.4128L222.442 27.827ZM228.436 27.827L227.022 29.2412L227.022 29.2412L228.436 27.827ZM230.704 59.66L228.915 60.5544L228.922 60.5676L228.928 60.5806L230.704 59.66ZM233.863 62.981L232.886 64.726L232.926 64.7489L232.968 64.7699L233.863 62.981ZM245.608 61.118L244.154 59.7448L244.144 59.7556L244.134 59.7666L245.608 61.118ZM248.362 53.747V51.747H246.362V53.747H248.362ZM251.845 53.747H253.845V51.747H251.845V53.747ZM249.901 62.981L248.098 62.1155L248.094 62.1233L248.09 62.1312L249.901 62.981ZM244.717 69.218L243.589 67.5664L243.589 67.5664L244.717 69.218ZM201.868 69.461L200.863 71.19L200.871 71.195L200.88 71.1999L201.868 69.461ZM196.36 63.548L194.578 64.4569L194.582 64.4644L194.586 64.4719L196.36 63.548ZM195.469 27.827L194.104 26.3649L194.079 26.3884L194.055 26.4128L195.469 27.827ZM203.731 59.66L201.942 60.5544L201.961 60.5933L201.983 60.6313L203.731 59.66ZM206.971 62.981L205.994 64.726L206.021 64.7411L206.048 64.7554L206.971 62.981ZM218.635 61.118L217.161 59.7665L217.161 59.7666L218.635 61.118ZM221.308 53.747V51.747H219.308V53.747H221.308ZM224.791 53.747H226.791V51.747H224.791V53.747ZM222.928 62.981L224.738 63.8308L224.742 63.8238L224.745 63.8168L222.928 62.981ZM217.744 69.218L218.872 70.8696L218.872 70.8696L217.744 69.218ZM256.624 71H258.624V69H256.624V71ZM250.063 69.299L248.649 70.7132L248.649 70.7132L250.063 69.299ZM249.496 27.746L248.131 26.2839L248.106 26.3074L248.082 26.3318L249.496 27.746ZM256.624 64.034H254.624V66.034H256.624V64.034ZM263.023 65.249L261.561 66.6136L261.608 66.6641L261.658 66.7111L263.023 65.249ZM263.185 84.203L261.673 82.8931L261.648 82.9229L261.623 82.9536L263.185 84.203ZM237.022 69.486C234.246 69.486 231.867 68.8802 229.829 67.7221L227.853 71.1999C230.567 72.7418 233.642 73.486 237.022 73.486V69.486ZM229.829 67.7221C227.811 66.5758 226.211 64.8993 225.026 62.6241L221.478 64.4719C222.993 67.3807 225.118 69.6462 227.853 71.1999L229.829 67.7221ZM225.048 62.6683C223.917 60.3588 223.308 57.4895 223.308 53.99H219.308C219.308 57.9425 219.995 61.4452 221.456 64.4277L225.048 62.6683ZM223.308 53.99V30.824H219.308V53.99H223.308ZM223.308 30.824C223.308 30.0197 223.536 29.5613 223.856 29.2412L221.028 26.4128C219.836 27.6047 219.308 29.1443 219.308 30.824H223.308ZM223.806 29.2891C224.218 28.9052 224.717 28.693 225.439 28.693V24.693C223.784 24.693 222.286 25.2368 221.077 26.3649L223.806 29.2891ZM225.439 28.693C226.243 28.693 226.702 28.9211 227.022 29.2412L229.85 26.4128C228.658 25.2209 227.119 24.693 225.439 24.693V28.693ZM227.022 29.2412C227.342 29.5613 227.57 30.0197 227.57 30.824H231.57C231.57 29.1443 231.042 27.6047 229.85 26.4128L227.022 29.2412ZM227.57 30.824V53.99H231.57V30.824H227.57ZM227.57 53.99C227.57 56.4673 227.981 58.6865 228.915 60.5544L232.493 58.7656C231.915 57.6095 231.57 56.0487 231.57 53.99H227.57ZM228.928 60.5806C229.853 62.3631 231.173 63.7671 232.886 64.726L234.84 61.236C233.852 60.6829 233.067 59.8729 232.479 58.7394L228.928 60.5806ZM232.968 64.7699C234.686 65.6284 236.592 66.034 238.642 66.034V62.034C237.128 62.034 235.848 61.7376 234.757 61.1921L232.968 64.7699ZM238.642 66.034C242.011 66.034 244.887 64.8645 247.082 62.4694L244.134 59.7666C242.765 61.2595 240.997 62.034 238.642 62.034V66.034ZM247.062 62.4912C249.288 60.1336 250.362 57.1663 250.362 53.747H246.362C246.362 56.2677 245.599 58.2144 244.154 59.7448L247.062 62.4912ZM248.362 55.747H251.845V51.747H248.362V55.747ZM249.845 53.747C249.845 56.9495 249.246 59.7243 248.098 62.1155L251.704 63.8465C253.148 60.8377 253.845 57.4565 253.845 53.747H249.845ZM248.09 62.1312C246.986 64.4839 245.482 66.2739 243.589 67.5664L245.845 70.8696C248.38 69.1381 250.332 66.7701 251.711 63.8308L248.09 62.1312ZM243.589 67.5664C241.737 68.8314 239.572 69.486 237.022 69.486V73.486C240.303 73.486 243.269 72.6286 245.845 70.8696L243.589 67.5664ZM210.049 69.486C207.273 69.486 204.894 68.8802 202.856 67.7221L200.88 71.1999C203.594 72.7418 206.669 73.486 210.049 73.486V69.486ZM202.873 67.732C200.907 66.5889 199.325 64.9112 198.134 62.6241L194.586 64.4719C196.095 67.3688 198.185 69.6331 200.863 71.19L202.873 67.732ZM198.141 62.6391C196.967 60.337 196.335 57.4786 196.335 53.99H192.335C192.335 57.9534 193.053 61.467 194.578 64.4569L198.141 62.6391ZM196.335 53.99V30.824H192.335V53.99H196.335ZM196.335 30.824C196.335 30.0197 196.563 29.5613 196.883 29.2412L194.055 26.4128C192.863 27.6047 192.335 29.1443 192.335 30.824H196.335ZM196.833 29.2891C197.245 28.9052 197.744 28.693 198.466 28.693V24.693C196.811 24.693 195.313 25.2368 194.104 26.3649L196.833 29.2891ZM198.466 28.693C199.27 28.693 199.729 28.9211 200.049 29.2412L202.877 26.4128C201.685 25.2209 200.146 24.693 198.466 24.693V28.693ZM200.049 29.2412C200.369 29.5613 200.597 30.0197 200.597 30.824H204.597C204.597 29.1443 204.069 27.6047 202.877 26.4128L200.049 29.2412ZM200.597 30.824V53.99H204.597V30.824H200.597ZM200.597 53.99C200.597 56.4673 201.008 58.6865 201.942 60.5544L205.52 58.7656C204.942 57.6095 204.597 56.0487 204.597 53.99H200.597ZM201.983 60.6313C202.958 62.3875 204.294 63.7745 205.994 64.726L207.948 61.236C206.947 60.6755 206.123 59.8485 205.479 58.6887L201.983 60.6313ZM206.048 64.7554C207.728 65.6291 209.621 66.034 211.669 66.034V62.034C210.153 62.034 208.913 61.7369 207.894 61.2066L206.048 64.7554ZM211.669 66.034C215.038 66.034 217.914 64.8645 220.109 62.4694L217.161 59.7666C215.792 61.2595 214.024 62.034 211.669 62.034V66.034ZM220.109 62.4694C222.273 60.1093 223.308 57.1494 223.308 53.747H219.308C219.308 56.2846 218.561 58.2387 217.161 59.7665L220.109 62.4694ZM221.308 55.747H224.791V51.747H221.308V55.747ZM222.791 53.747C222.791 56.9612 222.214 59.7467 221.111 62.1452L224.745 63.8168C226.125 60.8153 226.791 57.4448 226.791 53.747H222.791ZM221.117 62.1312C220.013 64.4839 218.509 66.2739 216.616 67.5664L218.872 70.8696C221.407 69.1381 223.359 66.7701 224.738 63.8308L221.117 62.1312ZM216.616 67.5664C214.764 68.8314 212.599 69.486 210.049 69.486V73.486C213.33 73.486 216.296 72.6286 218.872 70.8696L216.616 67.5664ZM260.593 83.418C259.998 83.418 259.588 83.2324 259.22 82.8384L256.296 85.5676C257.44 86.7936 258.919 87.418 260.593 87.418V83.418ZM259.22 82.8384C258.836 82.427 258.624 81.9275 258.624 81.206H254.624C254.624 82.8605 255.168 84.359 256.296 85.5676L259.22 82.8384ZM258.624 81.206V71H254.624V81.206H258.624ZM256.624 69H255.409V73H256.624V69ZM255.409 69C253.24 69 252.081 68.4888 251.477 67.8848L248.649 70.7132C250.313 72.3772 252.717 73 255.409 73V69ZM251.477 67.8848C250.873 67.2808 250.362 66.1215 250.362 63.953H246.362C246.362 66.6445 246.985 69.0492 248.649 70.7132L251.477 67.8848ZM250.362 63.953V30.743H246.362V63.953H250.362ZM250.362 30.743C250.362 29.9387 250.59 29.4803 250.91 29.1602L248.082 26.3318C246.89 27.5237 246.362 29.0633 246.362 30.743H250.362ZM250.86 29.2081C251.272 28.8242 251.771 28.612 252.493 28.612V24.612C250.838 24.612 249.34 25.1558 248.131 26.2839L250.86 29.2081ZM252.493 28.612C253.297 28.612 253.756 28.8401 254.076 29.1602L256.904 26.3318C255.712 25.1399 254.173 24.612 252.493 24.612V28.612ZM254.076 29.1602C254.396 29.4803 254.624 29.9387 254.624 30.743H258.624C258.624 29.0633 258.096 27.5237 256.904 26.3318L254.076 29.1602ZM254.624 30.743V64.034H258.624V30.743H254.624ZM256.624 66.034H260.026V62.034H256.624V66.034ZM260.026 66.034C260.788 66.034 261.231 66.2601 261.561 66.6136L264.485 63.8844C263.303 62.6179 261.748 62.034 260.026 62.034V66.034ZM261.658 66.7111C262.012 67.0411 262.238 67.4843 262.238 68.246H266.238C266.238 66.5237 265.654 64.9689 264.387 63.7869L261.658 66.7111ZM262.238 68.246V81.206H266.238V68.246H262.238ZM262.238 81.206C262.238 81.9688 262.025 82.4869 261.673 82.8931L264.696 85.5129C265.748 84.2991 266.238 82.8192 266.238 81.206H262.238ZM261.623 82.9536C261.372 83.267 261.094 83.418 260.593 83.418V87.418C262.251 87.418 263.701 86.759 264.747 85.4524L261.623 82.9536ZM284.814 68.489L283.834 70.2322L283.85 70.2412L283.866 70.2499L284.814 68.489ZM276.633 60.551L274.897 61.5433L274.906 61.5597L274.916 61.5759L276.633 60.551ZM276.471 37.223L274.723 36.2517L274.718 36.2613L276.471 37.223ZM284.247 29.285L285.243 31.0197L285.253 31.0136L285.264 31.0074L284.247 29.285ZM306.441 29.204L305.381 30.9L305.392 30.9069L305.403 30.9136L306.441 29.204ZM313.326 36.899L311.52 37.7577L311.529 37.7757L311.537 37.7934L313.326 36.899ZM314.703 50.75L316.06 52.2196L316.089 52.1925L316.118 52.1642L314.703 50.75ZM279.387 51.722H277.387V53.722H279.387V51.722ZM279.387 45.242V43.242H277.387V45.242H279.387ZM311.787 45.242L312.915 46.8936L318.262 43.242H311.787V45.242ZM308.466 47.51L306.467 47.55L306.541 51.247L309.594 49.1616L308.466 47.51ZM306.846 40.301L305.04 41.1591L305.044 41.168L305.048 41.1769L306.846 40.301ZM287.649 35.36L286.608 33.6524L286.599 33.6582L286.589 33.664L287.649 35.36ZM282.708 40.949L284.505 41.8267L284.509 41.8186L284.513 41.8105L282.708 40.949ZM283.032 56.825L281.303 57.8302L281.303 57.8302L283.032 56.825ZM288.621 62.333L289.609 60.5941L289.609 60.5941L288.621 62.333ZM301.905 63.467L302.556 65.3584L302.572 65.3526L302.589 65.3466L301.905 63.467ZM306.198 61.28L305.016 59.6672L305.007 59.6735L304.998 59.68L306.198 61.28ZM308.79 60.389V62.389H308.846L308.901 62.3859L308.79 60.389ZM311.301 61.199L312.625 59.6993L312.609 59.6856L312.593 59.6722L311.301 61.199ZM312.759 63.872L314.756 63.7611L314.756 63.7611L312.759 63.872ZM311.463 66.383L310.248 64.7943L310.234 64.8054L310.22 64.8168L311.463 66.383ZM304.578 69.947L303.946 68.0496L303.935 68.0535L304.578 69.947ZM296.802 69.324C292.61 69.324 288.946 68.4425 285.763 66.7281L283.866 70.2499C287.702 72.3155 292.031 73.324 296.802 73.324V69.324ZM285.795 66.7458C282.638 64.9698 280.167 62.5692 278.351 59.5261L274.916 61.5759C277.096 65.2288 280.079 68.1202 283.834 70.2322L285.795 66.7458ZM278.37 59.5587C276.618 56.4929 275.717 52.9543 275.717 48.887H271.717C271.717 53.5677 272.761 57.8051 274.897 61.5433L278.37 59.5587ZM275.717 48.887C275.717 44.7411 276.575 41.1939 278.225 38.1847L274.718 36.2613C272.696 39.9481 271.717 44.1769 271.717 48.887H275.717ZM278.22 38.1943C279.937 35.1023 282.273 32.7239 285.243 31.0197L283.252 27.5503C279.634 29.6261 276.785 32.5397 274.723 36.2517L278.22 38.1943ZM285.264 31.0074C288.215 29.2655 291.637 28.369 295.587 28.369V24.369C291.006 24.369 286.867 25.4165 283.231 27.5626L285.264 31.0074ZM295.587 28.369C299.493 28.369 302.729 29.2422 305.381 30.9L307.501 27.508C304.106 25.3858 300.105 24.369 295.587 24.369V28.369ZM305.403 30.9136C308.083 32.5405 310.116 34.8047 311.52 37.7577L315.133 36.0403C313.405 32.4053 310.848 29.5395 307.479 27.4944L305.403 30.9136ZM311.537 37.7934C312.996 40.7104 313.756 44.1476 313.756 48.158H317.756C317.756 43.6364 316.897 39.5675 315.115 36.0046L311.537 37.7934ZM313.756 48.158C313.756 48.6734 313.602 49.0227 313.289 49.3358L316.118 52.1642C317.208 51.0733 317.756 49.6946 317.756 48.158H313.756ZM313.347 49.2804C313.063 49.5423 312.678 49.722 312.03 49.722V53.722C313.542 53.722 314.94 53.2537 316.06 52.2196L313.347 49.2804ZM312.03 49.722H279.387V53.722H312.03V49.722ZM281.387 51.722V45.242H277.387V51.722H281.387ZM279.387 47.242H311.787V43.242H279.387V47.242ZM310.659 43.5904L307.338 45.8584L309.594 49.1616L312.915 46.8936L310.659 43.5904ZM310.466 47.47C310.407 44.5242 309.815 41.8288 308.644 39.4251L305.048 41.1769C305.929 42.9852 306.418 45.0958 306.467 47.55L310.466 47.47ZM308.653 39.4429C307.479 36.9719 305.785 34.9814 303.571 33.5266L301.374 36.8694C302.94 37.8986 304.162 39.3101 305.04 41.1591L308.653 39.4429ZM303.571 33.5266C301.296 32.0316 298.601 31.335 295.587 31.335V35.335C297.974 35.335 299.869 35.8804 301.374 36.8694L303.571 33.5266ZM295.587 31.335C292.211 31.335 289.19 32.078 286.608 33.6524L288.691 37.0676C290.537 35.942 292.807 35.335 295.587 35.335V31.335ZM286.589 33.664C284.095 35.2227 282.195 37.3803 280.903 40.0875L284.513 41.8105C285.489 39.7657 286.883 38.1973 288.709 37.056L286.589 33.664ZM280.911 40.0713C279.625 42.7048 279.007 45.6583 279.007 48.887H283.007C283.007 46.1757 283.524 43.8372 284.505 41.8267L280.911 40.0713ZM279.007 48.887C279.007 52.1718 279.758 55.1714 281.303 57.8302L284.761 55.8198C283.607 53.8346 283.007 51.5422 283.007 48.887H279.007ZM281.303 57.8302C282.834 60.4636 284.955 62.5504 287.633 64.0719L289.609 60.5941C287.535 59.4156 285.93 57.8304 284.761 55.8198L281.303 57.8302ZM287.633 64.0719C290.347 65.6138 293.423 66.358 296.802 66.358V62.358C294.026 62.358 291.648 61.7522 289.609 60.5941L287.633 64.0719ZM296.802 66.358C298.717 66.358 300.637 66.0177 302.556 65.3584L301.255 61.5756C299.717 62.1043 298.236 62.358 296.802 62.358V66.358ZM302.589 65.3466C304.487 64.6563 306.112 63.8451 307.398 62.88L304.998 59.68C304.125 60.3349 302.887 60.9817 301.222 61.5874L302.589 65.3466ZM307.381 62.8928C307.882 62.5254 308.338 62.389 308.79 62.389V58.389C307.407 58.389 306.135 58.8466 305.016 59.6672L307.381 62.8928ZM308.901 62.3859C309.396 62.3585 309.722 62.4828 310.009 62.7258L312.593 59.6722C311.476 58.7272 310.129 58.3115 308.679 58.3921L308.901 62.3859ZM309.978 62.6987C310.604 63.2509 310.745 63.6751 310.762 63.9829L314.756 63.7611C314.665 62.1249 313.835 60.7671 312.625 59.6993L309.978 62.6987ZM310.762 63.9829C310.772 64.1635 310.754 64.408 310.248 64.7943L312.678 67.9717C314.009 66.954 314.854 65.5245 314.756 63.7611L310.762 63.9829ZM310.22 64.8168C308.604 66.0996 306.529 67.1885 303.946 68.0496L305.211 71.8444C308.136 70.8695 310.651 69.5824 312.707 67.9492L310.22 64.8168ZM303.935 68.0535C301.412 68.9112 299.038 69.324 296.802 69.324V73.324C299.535 73.324 302.345 72.8188 305.222 71.8405L303.935 68.0535ZM363.797 69.866L362.335 71.2306L362.382 71.2811L362.432 71.3281L363.797 69.866ZM363.797 27.827L362.432 26.3649L362.407 26.3884L362.383 26.4128L363.797 27.827ZM369.71 69.866L371.176 71.2269L371.199 71.2018L371.221 71.1759L369.71 69.866ZM330.587 69.866L329.076 71.1759L329.122 71.2298L329.173 71.2802L330.587 69.866ZM330.587 27.827L329.173 26.4128L329.147 26.439L329.121 26.4661L330.587 27.827ZM336.5 27.827L337.914 26.4128L337.914 26.4128L336.5 27.827ZM336.5 69.866L337.914 71.2802L337.939 71.2558L337.962 71.2306L336.5 69.866ZM336.581 51.641H334.581V53.641H336.581V51.641ZM336.581 44.351V42.351H334.581V44.351H336.581ZM365.012 44.351H367.012V42.351H365.012V44.351ZM365.012 51.641V53.641H367.012V51.641H365.012ZM366.794 69C366.072 69 365.573 68.7878 365.162 68.4039L362.432 71.3281C363.641 72.4562 365.139 73 366.794 73V69ZM365.259 68.5014C364.875 68.09 364.663 67.5905 364.663 66.869H360.663C360.663 68.5235 361.207 70.022 362.335 71.2306L365.259 68.5014ZM364.663 66.869V30.824H360.663V66.869H364.663ZM364.663 30.824C364.663 30.0197 364.891 29.5613 365.211 29.2412L362.383 26.4128C361.191 27.6047 360.663 29.1443 360.663 30.824H364.663ZM365.162 29.2891C365.573 28.9052 366.072 28.693 366.794 28.693V24.693C365.139 24.693 363.641 25.2368 362.432 26.3649L365.162 29.2891ZM366.794 28.693C367.603 28.693 367.997 28.9214 368.244 29.1879L371.176 26.4661C370.019 25.2206 368.469 24.693 366.794 24.693V28.693ZM368.244 29.1879C368.535 29.5013 368.763 29.978 368.763 30.824H372.763C372.763 29.186 372.289 27.6647 371.176 26.4661L368.244 29.1879ZM368.763 30.824V66.869H372.763V30.824H368.763ZM368.763 66.869C368.763 67.6318 368.551 68.1499 368.199 68.5561L371.221 71.1759C372.273 69.9621 372.763 68.4822 372.763 66.869H368.763ZM368.244 68.5051C367.997 68.7716 367.603 69 366.794 69V73C368.469 73 370.019 72.4724 371.176 71.2269L368.244 68.5051ZM333.503 69C332.781 69 332.339 68.7894 332.001 68.4518L329.173 71.2802C330.347 72.4546 331.849 73 333.503 73V69ZM332.098 68.5561C331.746 68.1499 331.534 67.6318 331.534 66.869H327.534C327.534 68.4822 328.024 69.9621 329.076 71.1759L332.098 68.5561ZM331.534 66.869V30.824H327.534V66.869H331.534ZM331.534 30.824C331.534 29.978 331.762 29.5013 332.053 29.1879L329.121 26.4661C328.008 27.6647 327.534 29.186 327.534 30.824H331.534ZM332.001 29.2412C332.339 28.9036 332.781 28.693 333.503 28.693V24.693C331.849 24.693 330.347 25.2384 329.173 26.4128L332.001 29.2412ZM333.503 28.693C334.307 28.693 334.766 28.9211 335.086 29.2412L337.914 26.4128C336.722 25.2209 335.183 24.693 333.503 24.693V28.693ZM335.086 29.2412C335.406 29.5613 335.634 30.0197 335.634 30.824H339.634C339.634 29.1443 339.106 27.6047 337.914 26.4128L335.086 29.2412ZM335.634 30.824V66.869H339.634V30.824H335.634ZM335.634 66.869C335.634 67.5905 335.422 68.09 335.038 68.5014L337.962 71.2306C339.09 70.022 339.634 68.5235 339.634 66.869H335.634ZM335.086 68.4518C334.766 68.7719 334.307 69 333.503 69V73C335.183 73 336.722 72.4721 337.914 71.2802L335.086 68.4518ZM338.581 51.641V44.351H334.581V51.641H338.581ZM336.581 46.351H365.012V42.351H336.581V46.351ZM363.012 44.351V51.641H367.012V44.351H363.012ZM365.012 49.641H336.581V53.641H365.012V49.641ZM397.206 69.056L396.234 70.8043L396.253 70.8149L396.273 70.8251L397.206 69.056ZM390.24 62.009L388.483 62.9645L388.489 62.9763L388.496 62.9881L390.24 62.009ZM388.863 27.827L387.448 26.4128L387.448 26.4128L388.863 27.827ZM394.776 27.827L393.314 29.1916L393.361 29.2421L393.411 29.2891L394.776 27.827ZM397.692 58.202L395.952 59.1892L395.958 59.1995L395.964 59.2097L397.692 58.202ZM402.309 62.576L401.414 64.3649L401.434 64.3749L401.455 64.3845L402.309 62.576ZM415.026 62.576L414.131 60.7871L414.12 60.7925L414.11 60.7981L415.026 62.576ZM419.4 58.85L421.046 59.9855L421.046 59.9855L419.4 58.85ZM421.02 53.585V51.585H419.02V53.585H421.02ZM426.123 53.585H428.123V51.585H426.123V53.585ZM423.612 62.657L421.912 61.6031L421.904 61.6155L421.897 61.628L423.612 62.657ZM416.889 69.056L415.929 67.3015L415.922 67.3053L415.915 67.3093L416.889 69.056ZM422.154 69.866L420.692 71.2306L420.739 71.2811L420.789 71.3281L422.154 69.866ZM422.154 27.746L420.789 26.2839L420.764 26.3074L420.739 26.3318L422.154 27.746ZM428.148 69.866L429.562 71.2802L429.586 71.2558L429.61 71.2306L428.148 69.866ZM407.25 69.405C403.812 69.405 400.79 68.6852 398.138 67.2869L396.273 70.8251C399.561 72.5588 403.235 73.405 407.25 73.405V69.405ZM398.177 67.3077C395.604 65.8782 393.541 63.8045 391.984 61.0299L388.496 62.9881C390.394 66.3695 392.975 68.9938 396.234 70.8043L398.177 67.3077ZM391.997 61.0535C390.521 58.3394 389.729 54.9081 389.729 50.669H385.729C385.729 55.3939 386.611 59.5226 388.483 62.9645L391.997 61.0535ZM389.729 50.669V30.743H385.729V50.669H389.729ZM389.729 30.743C389.729 30.0208 389.939 29.5788 390.277 29.2412L387.448 26.4128C386.274 27.5872 385.729 29.0892 385.729 30.743H389.729ZM390.277 29.2412C390.697 28.8215 391.18 28.612 391.86 28.612V24.612C390.163 24.612 388.649 25.2125 387.448 26.4128L390.277 29.2412ZM391.86 28.612C392.538 28.612 392.965 28.8185 393.314 29.1916L396.238 26.4624C395.074 25.2155 393.557 24.612 391.86 24.612V28.612ZM393.411 29.2891C393.784 29.6373 393.991 30.0646 393.991 30.743H397.991C397.991 29.0454 397.387 27.5287 396.14 26.3649L393.411 29.2891ZM393.991 30.743V50.669H397.991V30.743H393.991ZM393.991 50.669C393.991 53.9329 394.602 56.8097 395.952 59.1892L399.431 57.2148C398.514 55.5983 397.991 53.4531 397.991 50.669H393.991ZM395.964 59.2097C397.287 61.477 399.11 63.2126 401.414 64.3649L403.203 60.7871C401.62 59.9954 400.365 58.815 399.419 57.1943L395.964 59.2097ZM401.455 64.3845C403.699 65.4441 406.183 65.953 408.87 65.953V61.953C406.696 61.953 404.807 61.5439 403.163 60.7675L401.455 64.3845ZM408.87 65.953C411.46 65.953 413.835 65.4394 415.942 64.3539L414.11 60.7981C412.653 61.5486 410.924 61.953 408.87 61.953V65.953ZM415.92 64.3649C418.033 63.3082 419.76 61.8509 421.046 59.9855L417.753 57.7145C416.88 58.9811 415.69 60.0078 414.131 60.7871L415.92 64.3649ZM421.046 59.9855C422.362 58.0779 423.02 55.9251 423.02 53.585H419.02C419.02 55.1329 418.598 56.4901 417.753 57.7145L421.046 59.9855ZM421.02 55.585H426.123V51.585H421.02V55.585ZM424.123 53.585C424.123 56.5816 423.379 59.237 421.912 61.6031L425.311 63.7109C427.192 60.677 428.123 57.2844 428.123 53.585H424.123ZM421.897 61.628C420.466 64.0121 418.491 65.8995 415.929 67.3015L417.849 70.8105C421.011 69.0805 423.517 66.7019 425.327 63.686L421.897 61.628ZM415.915 67.3093C413.44 68.6892 410.57 69.405 407.25 69.405V73.405C411.165 73.405 414.721 72.5548 417.863 70.8027L415.915 67.3093ZM425.151 69C424.429 69 423.93 68.7878 423.518 68.4039L420.789 71.3281C421.998 72.4562 423.496 73 425.151 73V69ZM423.616 68.5014C423.232 68.09 423.02 67.5905 423.02 66.869H419.02C419.02 68.5235 419.563 70.022 420.692 71.2306L423.616 68.5014ZM423.02 66.869V30.743H419.02V66.869H423.02ZM423.02 30.743C423.02 29.9387 423.248 29.4803 423.568 29.1602L420.739 26.3318C419.548 27.5237 419.02 29.0633 419.02 30.743H423.02ZM423.518 29.2081C423.93 28.8242 424.429 28.612 425.151 28.612V24.612C423.496 24.612 421.998 25.1558 420.789 26.2839L423.518 29.2081ZM425.151 28.612C425.955 28.612 426.413 28.8401 426.733 29.1602L429.562 26.3318C428.37 25.1399 426.83 24.612 425.151 24.612V28.612ZM426.733 29.1602C427.054 29.4803 427.282 29.9387 427.282 30.743H431.282C431.282 29.0633 430.754 27.5237 429.562 26.3318L426.733 29.1602ZM427.282 30.743V66.869H431.282V30.743H427.282ZM427.282 66.869C427.282 67.5905 427.069 68.09 426.686 68.5014L429.61 71.2306C430.738 70.022 431.282 68.5235 431.282 66.869H427.282ZM426.733 68.4518C426.413 68.7719 425.955 69 425.151 69V73C426.83 73 428.37 72.4721 429.562 71.2802L426.733 68.4518ZM455.902 68.489L454.921 70.2322L454.937 70.2412L454.953 70.2499L455.902 68.489ZM447.721 60.551L445.984 61.5433L445.993 61.5597L446.003 61.5759L447.721 60.551ZM447.559 37.223L445.81 36.2517L445.805 36.2613L447.559 37.223ZM455.335 29.285L456.33 31.0197L456.34 31.0136L456.351 31.0074L455.335 29.285ZM477.529 29.204L476.469 30.9L476.48 30.9069L476.491 30.9136L477.529 29.204ZM484.414 36.899L482.607 37.7577L482.616 37.7757L482.625 37.7934L484.414 36.899ZM485.791 50.75L487.147 52.2196L487.176 52.1925L487.205 52.1642L485.791 50.75ZM450.475 51.722H448.475V53.722H450.475V51.722ZM450.475 45.242V43.242H448.475V45.242H450.475ZM482.875 45.242L484.002 46.8936L489.349 43.242H482.875V45.242ZM479.554 47.51L477.554 47.55L477.628 51.247L480.681 49.1616L479.554 47.51ZM477.934 40.301L476.127 41.1591L476.131 41.168L476.136 41.1769L477.934 40.301ZM458.737 35.36L457.695 33.6524L457.686 33.6582L457.677 33.664L458.737 35.36ZM453.796 40.949L455.593 41.8267L455.597 41.8186L455.6 41.8105L453.796 40.949ZM454.12 56.825L452.391 57.8302L452.391 57.8302L454.12 56.825ZM459.709 62.333L460.697 60.5941L460.697 60.5941L459.709 62.333ZM472.993 63.467L473.643 65.3584L473.659 65.3526L473.676 65.3466L472.993 63.467ZM477.286 61.28L476.103 59.6672L476.094 59.6735L476.086 59.68L477.286 61.28ZM479.878 60.389V62.389H479.933L479.988 62.3859L479.878 60.389ZM482.389 61.199L483.712 59.6993L483.696 59.6856L483.68 59.6722L482.389 61.199ZM483.847 63.872L485.843 63.7611L485.843 63.7611L483.847 63.872ZM482.551 66.383L481.336 64.7943L481.321 64.8054L481.307 64.8168L482.551 66.383ZM475.666 69.947L475.033 68.0496L475.022 68.0535L475.666 69.947ZM467.89 69.324C463.697 69.324 460.034 68.4425 456.85 66.7281L454.953 70.2499C458.789 72.3155 463.118 73.324 467.89 73.324V69.324ZM456.882 66.7458C453.725 64.9698 451.254 62.5692 449.438 59.5261L446.003 61.5759C448.183 65.2288 451.166 68.1202 454.921 70.2322L456.882 66.7458ZM449.457 59.5587C447.705 56.4929 446.805 52.9543 446.805 48.887H442.805C442.805 53.5677 443.848 57.8051 445.984 61.5433L449.457 59.5587ZM446.805 48.887C446.805 44.7411 447.662 41.1939 449.312 38.1847L445.805 36.2613C443.783 39.9481 442.805 44.1769 442.805 48.887H446.805ZM449.307 38.1943C451.025 35.1023 453.36 32.7239 456.33 31.0197L454.339 27.5503C450.721 29.6261 447.872 32.5397 445.81 36.2517L449.307 38.1943ZM456.351 31.0074C459.303 29.2655 462.724 28.369 466.675 28.369V24.369C462.093 24.369 457.954 25.4165 454.318 27.5626L456.351 31.0074ZM466.675 28.369C470.58 28.369 473.816 29.2422 476.469 30.9L478.589 27.508C475.193 25.3858 471.193 24.369 466.675 24.369V28.369ZM476.491 30.9136C479.17 32.5405 481.203 34.8047 482.607 37.7577L486.22 36.0403C484.492 32.4053 481.935 29.5395 478.566 27.4944L476.491 30.9136ZM482.625 37.7934C484.083 40.7104 484.844 44.1476 484.844 48.158H488.844C488.844 43.6364 487.984 39.5675 486.202 36.0046L482.625 37.7934ZM484.844 48.158C484.844 48.6734 484.689 49.0227 484.376 49.3358L487.205 52.1642C488.296 51.0733 488.844 49.6946 488.844 48.158H484.844ZM484.434 49.2804C484.15 49.5423 483.765 49.722 483.118 49.722V53.722C484.63 53.722 486.027 53.2537 487.147 52.2196L484.434 49.2804ZM483.118 49.722H450.475V53.722H483.118V49.722ZM452.475 51.722V45.242H448.475V51.722H452.475ZM450.475 47.242H482.875V43.242H450.475V47.242ZM481.747 43.5904L478.426 45.8584L480.681 49.1616L484.002 46.8936L481.747 43.5904ZM481.553 47.47C481.494 44.5242 480.903 41.8288 479.732 39.4251L476.136 41.1769C477.017 42.9852 477.505 45.0958 477.554 47.55L481.553 47.47ZM479.74 39.4429C478.566 36.9719 476.872 34.9814 474.658 33.5266L472.461 36.8694C474.027 37.8986 475.249 39.3101 476.127 41.1591L479.74 39.4429ZM474.658 33.5266C472.383 32.0316 469.688 31.335 466.675 31.335V35.335C469.061 35.335 470.956 35.8804 472.461 36.8694L474.658 33.5266ZM466.675 31.335C463.299 31.335 460.277 32.078 457.695 33.6524L459.778 37.0676C461.624 35.942 463.895 35.335 466.675 35.335V31.335ZM457.677 33.664C455.183 35.2227 453.283 37.3803 451.991 40.0875L455.6 41.8105C456.576 39.7657 457.97 38.1973 459.797 37.056L457.677 33.664ZM451.998 40.0713C450.712 42.7048 450.095 45.6583 450.095 48.887H454.095C454.095 46.1757 454.611 43.8372 455.593 41.8267L451.998 40.0713ZM450.095 48.887C450.095 52.1718 450.845 55.1714 452.391 57.8302L455.849 55.8198C454.694 53.8346 454.095 51.5422 454.095 48.887H450.095ZM452.391 57.8302C453.922 60.4636 456.043 62.5504 458.721 64.0719L460.697 60.5941C458.622 59.4156 457.018 57.8304 455.849 55.8198L452.391 57.8302ZM458.721 64.0719C461.434 65.6138 464.51 66.358 467.89 66.358V62.358C465.113 62.358 462.735 61.7522 460.697 60.5941L458.721 64.0719ZM467.89 66.358C469.804 66.358 471.725 66.0177 473.643 65.3584L472.342 61.5756C470.804 62.1043 469.323 62.358 467.89 62.358V66.358ZM473.676 65.3466C475.574 64.6563 477.199 63.8451 478.486 62.88L476.086 59.68C475.212 60.3349 473.975 60.9817 472.309 61.5874L473.676 65.3466ZM478.468 62.8928C478.969 62.5254 479.425 62.389 479.878 62.389V58.389C478.494 58.389 477.222 58.8466 476.103 59.6672L478.468 62.8928ZM479.988 62.3859C480.483 62.3585 480.809 62.4828 481.097 62.7258L483.68 59.6722C482.564 58.7272 481.216 58.3115 479.767 58.3921L479.988 62.3859ZM481.065 62.6987C481.691 63.2509 481.833 63.6751 481.85 63.9829L485.843 63.7611C485.753 62.1249 484.922 60.7671 483.712 59.6993L481.065 62.6987ZM481.85 63.9829C481.86 64.1635 481.841 64.408 481.336 64.7943L483.765 67.9717C485.096 66.954 485.941 65.5245 485.843 63.7611L481.85 63.9829ZM481.307 64.8168C479.691 66.0996 477.616 67.1885 475.033 68.0496L476.298 71.8444C479.223 70.8695 481.738 69.5824 483.794 67.9492L481.307 64.8168ZM475.022 68.0535C472.499 68.9112 470.125 69.324 467.89 69.324V73.324C470.622 73.324 473.432 72.8188 476.309 71.8405L475.022 68.0535Z" fill="#fff"/>

</svg>
