<svg width="512" height="512" viewBox="0 0 512 512" fill="none" xmlns="http://www.w3.org/2000/svg">
<g clip-path="url(#clip0)">
<path d="M493.973 296.384C509.248 167.808 486.635 86.6347 445.845 49.92L445.867 49.8987C380.032 -12.8 157.696 -22.08 78.9333 52.7147C43.5627 89.3013 31.104 142.997 29.7387 209.472C28.3733 275.968 26.752 400.533 142.827 434.325H142.933L142.827 485.931C142.827 485.931 142.037 506.837 155.392 511.04C170.667 515.989 177.579 506.283 225.088 449.536C304.533 456.427 365.547 440.64 372.48 438.336C388.523 432.96 479.296 420.949 493.973 296.384ZM232.917 413.227C232.917 413.227 182.635 475.925 166.997 492.203C161.877 497.493 156.267 497.003 156.352 486.507C156.352 479.616 156.736 400.832 156.736 400.832C58.3253 372.629 64.128 266.56 65.1947 211.072C66.2613 155.563 76.416 110.101 106.368 79.488C175.467 14.6987 370.389 29.184 420.053 75.8613C480.768 129.685 459.157 281.749 459.285 286.933C446.805 390.912 373.248 397.504 359.723 402.005C353.941 403.925 300.288 417.728 232.917 413.227V413.227Z" fill="#fcfcfc"/>
<path d="M260.736 91.6693C252.523 91.6693 252.523 104.469 260.736 104.576C324.459 105.067 376.939 149.483 377.515 230.955C377.515 239.552 390.101 239.445 389.995 230.848H389.973C389.291 143.061 331.989 92.16 260.736 91.6693V91.6693Z" fill="#fcfcfc"/>
<path d="M344.555 217.451C344.363 225.941 356.928 226.347 357.035 217.749C358.08 169.344 328.235 129.472 272.149 125.269C263.936 124.672 263.083 137.579 271.275 138.176C319.915 141.867 345.536 175.061 344.555 217.451V217.451Z" fill="#747474"/>
<path d="M331.115 272.512C320.576 266.411 309.845 270.208 305.408 276.203L296.128 288.213C291.413 294.315 282.603 293.504 282.603 293.504C218.304 276.501 201.109 209.216 201.109 209.216C201.109 209.216 200.32 200.107 206.208 195.221L217.813 185.621C223.616 181.013 227.285 169.92 221.376 159.019C205.589 130.496 194.987 120.661 189.589 113.109C183.915 106.005 175.381 104.405 166.507 109.205H166.315C147.861 120 127.659 140.203 134.123 161.003C145.152 182.933 165.419 252.843 230.016 305.664C260.373 330.645 308.416 356.245 328.811 362.155L329.003 362.453C349.099 369.152 368.64 348.16 379.072 329.152V329.003C383.701 319.808 382.165 311.104 375.403 305.408C363.413 293.717 345.323 280.811 331.115 272.512Z" fill="#fcfcfc"/>
<path d="M280.939 172.885C301.44 174.08 311.381 184.789 312.448 206.784C312.832 215.381 325.312 214.784 324.928 206.187C323.563 177.472 308.587 161.472 281.621 159.979C273.408 159.488 272.64 172.395 280.939 172.885V172.885Z" fill="#fcfcfc"/>
</g>
<defs>
<clipPath id="clip0">
<rect width="512" height="512" fill="white"/>
</clipPath>
</defs>
</svg>
