<svg id="Группа_18" data-name="Группа 18" xmlns="http://www.w3.org/2000/svg" xmlns:xlink="http://www.w3.org/1999/xlink" width="37.69" height="37.69" viewBox="0 0 37.69 37.69">
  <defs>
    <style>
      .cls-1 {
        fill: url(#linear-gradient);
      }
    </style>
    <linearGradient id="linear-gradient" x1="18.845" y1="37.69" x2="18.845" gradientUnits="userSpaceOnUse">
      <stop offset="0" stop-color="#1a954c"/>
      <stop offset="1" stop-color="#2bae60"/>
    </linearGradient>

  </defs>
  <circle id="Эллипс_13" data-name="Эллипс 13" class="cls-1" cx="18.845" cy="18.845" r="18.845"/>
  <svg version="1.1" id="Capa_1" width="18" height="18" xmlns="http://www.w3.org/2000/svg" xmlns:xlink="http://www.w3.org/1999/xlink" x="10px" y="10px"
       viewBox="0 0 512.006 512.006" fill="#ffffff" style="enable-background:new 0 0 512.006 512.006;" xml:space="preserve">
			<path d="M502.05,407.127l-56.761-37.844L394.83,335.65c-9.738-6.479-22.825-4.355-30.014,4.873l-31.223,40.139
				c-6.707,8.71-18.772,11.213-28.39,5.888c-21.186-11.785-46.239-22.881-101.517-78.23c-55.278-55.349-66.445-80.331-78.23-101.517
				c-5.325-9.618-2.822-21.683,5.888-28.389l40.139-31.223c9.227-7.188,11.352-20.275,4.873-30.014l-32.6-48.905L104.879,9.956
				C98.262,0.03,85.016-2.95,74.786,3.185L29.95,30.083C17.833,37.222,8.926,48.75,5.074,62.277
				C-7.187,106.98-9.659,205.593,148.381,363.633s256.644,155.56,301.347,143.298c13.527-3.851,25.055-12.758,32.194-24.876
				l26.898-44.835C514.956,426.989,511.976,413.744,502.05,407.127z"/>
</svg>
</svg>
