<svg width="227" height="195" viewBox="0 0 227 195" fill="none" xmlns="http://www.w3.org/2000/svg">
<circle cx="1.25" cy="1.25" r="1.25" fill="#C4C4C4"/>
<circle cx="1.25" cy="33.25" r="1.25" fill="#C4C4C4"/>
<circle cx="1.25" cy="17.25" r="1.25" fill="#C4C4C4"/>
<circle cx="1.25" cy="97.25" r="1.25" fill="#C4C4C4"/>
<circle cx="1.25" cy="129.25" r="1.25" fill="#C4C4C4"/>
<circle cx="1.25" cy="113.25" r="1.25" fill="#C4C4C4"/>
<circle cx="1.25" cy="145.25" r="1.25" fill="#C4C4C4"/>
<circle cx="1.25" cy="177.25" r="1.25" fill="#C4C4C4"/>
<circle cx="1.25" cy="193.25" r="1.25" fill="#C4C4C4"/>
<circle cx="1.25" cy="161.25" r="1.25" fill="#C4C4C4"/>
<circle cx="1.25" cy="49.25" r="1.25" fill="#C4C4C4"/>
<circle cx="1.25" cy="81.25" r="1.25" fill="#C4C4C4"/>
<circle cx="1.25" cy="65.25" r="1.25" fill="#C4C4C4"/>
<circle cx="17.25" cy="1.25" r="1.25" fill="#C4C4C4"/>
<circle cx="17.25" cy="33.25" r="1.25" fill="#C4C4C4"/>
<circle cx="17.25" cy="17.25" r="1.25" fill="#C4C4C4"/>
<circle cx="17.25" cy="97.25" r="1.25" fill="#C4C4C4"/>
<circle cx="17.25" cy="129.25" r="1.25" fill="#C4C4C4"/>
<circle cx="17.25" cy="113.25" r="1.25" fill="#C4C4C4"/>
<circle cx="17.25" cy="145.25" r="1.25" fill="#C4C4C4"/>
<circle cx="17.25" cy="177.25" r="1.25" fill="#C4C4C4"/>
<circle cx="17.25" cy="193.25" r="1.25" fill="#C4C4C4"/>
<circle cx="17.25" cy="161.25" r="1.25" fill="#C4C4C4"/>
<circle cx="17.25" cy="49.25" r="1.25" fill="#C4C4C4"/>
<circle cx="17.25" cy="81.25" r="1.25" fill="#C4C4C4"/>
<circle cx="17.25" cy="65.25" r="1.25" fill="#C4C4C4"/>
<circle cx="33.25" cy="1.25" r="1.25" fill="#C4C4C4"/>
<circle cx="33.25" cy="33.25" r="1.25" fill="#C4C4C4"/>
<circle cx="33.25" cy="17.25" r="1.25" fill="#C4C4C4"/>
<circle cx="33.25" cy="97.25" r="1.25" fill="#C4C4C4"/>
<circle cx="33.25" cy="129.25" r="1.25" fill="#C4C4C4"/>
<circle cx="33.25" cy="113.25" r="1.25" fill="#C4C4C4"/>
<circle cx="33.25" cy="145.25" r="1.25" fill="#C4C4C4"/>
<circle cx="33.25" cy="177.25" r="1.25" fill="#C4C4C4"/>
<circle cx="33.25" cy="193.25" r="1.25" fill="#C4C4C4"/>
<circle cx="33.25" cy="161.25" r="1.25" fill="#C4C4C4"/>
<circle cx="33.25" cy="49.25" r="1.25" fill="#C4C4C4"/>
<circle cx="33.25" cy="81.25" r="1.25" fill="#C4C4C4"/>
<circle cx="33.25" cy="65.25" r="1.25" fill="#C4C4C4"/>
<circle cx="49.25" cy="1.25" r="1.25" fill="#C4C4C4"/>
<circle cx="49.25" cy="33.25" r="1.25" fill="#C4C4C4"/>
<circle cx="49.25" cy="17.25" r="1.25" fill="#C4C4C4"/>
<circle cx="49.25" cy="97.25" r="1.25" fill="#C4C4C4"/>
<circle cx="49.25" cy="129.25" r="1.25" fill="#C4C4C4"/>
<circle cx="49.25" cy="113.25" r="1.25" fill="#C4C4C4"/>
<circle cx="49.25" cy="145.25" r="1.25" fill="#C4C4C4"/>
<circle cx="49.25" cy="177.25" r="1.25" fill="#C4C4C4"/>
<circle cx="49.25" cy="193.25" r="1.25" fill="#C4C4C4"/>
<circle cx="49.25" cy="161.25" r="1.25" fill="#C4C4C4"/>
<circle cx="49.25" cy="49.25" r="1.25" fill="#C4C4C4"/>
<circle cx="49.25" cy="81.25" r="1.25" fill="#C4C4C4"/>
<circle cx="49.25" cy="65.25" r="1.25" fill="#C4C4C4"/>
<circle cx="65.25" cy="1.25" r="1.25" fill="#C4C4C4"/>
<circle cx="65.25" cy="33.25" r="1.25" fill="#C4C4C4"/>
<circle cx="65.25" cy="17.25" r="1.25" fill="#C4C4C4"/>
<circle cx="65.25" cy="97.25" r="1.25" fill="#C4C4C4"/>
<circle cx="65.25" cy="129.25" r="1.25" fill="#C4C4C4"/>
<circle cx="65.25" cy="113.25" r="1.25" fill="#C4C4C4"/>
<circle cx="65.25" cy="145.25" r="1.25" fill="#C4C4C4"/>
<circle cx="65.25" cy="177.25" r="1.25" fill="#C4C4C4"/>
<circle cx="65.25" cy="193.25" r="1.25" fill="#C4C4C4"/>
<circle cx="65.25" cy="161.25" r="1.25" fill="#C4C4C4"/>
<circle cx="65.25" cy="49.25" r="1.25" fill="#C4C4C4"/>
<circle cx="65.25" cy="81.25" r="1.25" fill="#C4C4C4"/>
<circle cx="65.25" cy="65.25" r="1.25" fill="#C4C4C4"/>
<circle cx="81.25" cy="1.25" r="1.25" fill="#C4C4C4"/>
<circle cx="81.25" cy="33.25" r="1.25" fill="#C4C4C4"/>
<circle cx="81.25" cy="17.25" r="1.25" fill="#C4C4C4"/>
<circle cx="81.25" cy="97.25" r="1.25" fill="#C4C4C4"/>
<circle cx="81.25" cy="129.25" r="1.25" fill="#C4C4C4"/>
<circle cx="81.25" cy="113.25" r="1.25" fill="#C4C4C4"/>
<circle cx="81.25" cy="145.25" r="1.25" fill="#C4C4C4"/>
<circle cx="81.25" cy="177.25" r="1.25" fill="#C4C4C4"/>
<circle cx="81.25" cy="193.25" r="1.25" fill="#C4C4C4"/>
<circle cx="81.25" cy="161.25" r="1.25" fill="#C4C4C4"/>
<circle cx="81.25" cy="49.25" r="1.25" fill="#C4C4C4"/>
<circle cx="81.25" cy="81.25" r="1.25" fill="#C4C4C4"/>
<circle cx="81.25" cy="65.25" r="1.25" fill="#C4C4C4"/>
<circle cx="97.25" cy="1.25" r="1.25" fill="#C4C4C4"/>
<circle cx="97.25" cy="33.25" r="1.25" fill="#C4C4C4"/>
<circle cx="97.25" cy="17.25" r="1.25" fill="#C4C4C4"/>
<circle cx="97.25" cy="97.25" r="1.25" fill="#C4C4C4"/>
<circle cx="97.25" cy="129.25" r="1.25" fill="#C4C4C4"/>
<circle cx="97.25" cy="113.25" r="1.25" fill="#C4C4C4"/>
<circle cx="97.25" cy="145.25" r="1.25" fill="#C4C4C4"/>
<circle cx="97.25" cy="177.25" r="1.25" fill="#C4C4C4"/>
<circle cx="97.25" cy="193.25" r="1.25" fill="#C4C4C4"/>
<circle cx="97.25" cy="161.25" r="1.25" fill="#C4C4C4"/>
<circle cx="97.25" cy="49.25" r="1.25" fill="#C4C4C4"/>
<circle cx="97.25" cy="81.25" r="1.25" fill="#C4C4C4"/>
<circle cx="97.25" cy="65.25" r="1.25" fill="#C4C4C4"/>
<circle cx="113.25" cy="1.25" r="1.25" fill="#C4C4C4"/>
<circle cx="113.25" cy="33.25" r="1.25" fill="#C4C4C4"/>
<circle cx="113.25" cy="17.25" r="1.25" fill="#C4C4C4"/>
<circle cx="113.25" cy="97.25" r="1.25" fill="#C4C4C4"/>
<circle cx="113.25" cy="129.25" r="1.25" fill="#C4C4C4"/>
<circle cx="113.25" cy="113.25" r="1.25" fill="#C4C4C4"/>
<circle cx="113.25" cy="145.25" r="1.25" fill="#C4C4C4"/>
<circle cx="113.25" cy="177.25" r="1.25" fill="#C4C4C4"/>
<circle cx="113.25" cy="193.25" r="1.25" fill="#C4C4C4"/>
<circle cx="113.25" cy="161.25" r="1.25" fill="#C4C4C4"/>
<circle cx="113.25" cy="49.25" r="1.25" fill="#C4C4C4"/>
<circle cx="113.25" cy="81.25" r="1.25" fill="#C4C4C4"/>
<circle cx="113.25" cy="65.25" r="1.25" fill="#C4C4C4"/>
<circle cx="129.25" cy="1.25" r="1.25" fill="#C4C4C4"/>
<circle cx="129.25" cy="33.25" r="1.25" fill="#C4C4C4"/>
<circle cx="129.25" cy="17.25" r="1.25" fill="#C4C4C4"/>
<circle cx="129.25" cy="97.25" r="1.25" fill="#C4C4C4"/>
<circle cx="129.25" cy="129.25" r="1.25" fill="#C4C4C4"/>
<circle cx="129.25" cy="113.25" r="1.25" fill="#C4C4C4"/>
<circle cx="129.25" cy="145.25" r="1.25" fill="#C4C4C4"/>
<circle cx="129.25" cy="177.25" r="1.25" fill="#C4C4C4"/>
<circle cx="129.25" cy="193.25" r="1.25" fill="#C4C4C4"/>
<circle cx="129.25" cy="161.25" r="1.25" fill="#C4C4C4"/>
<circle cx="129.25" cy="49.25" r="1.25" fill="#C4C4C4"/>
<circle cx="129.25" cy="81.25" r="1.25" fill="#C4C4C4"/>
<circle cx="129.25" cy="65.25" r="1.25" fill="#C4C4C4"/>
<circle cx="145.25" cy="1.25" r="1.25" fill="#C4C4C4"/>
<circle cx="145.25" cy="33.25" r="1.25" fill="#C4C4C4"/>
<circle cx="145.25" cy="17.25" r="1.25" fill="#C4C4C4"/>
<circle cx="145.25" cy="97.25" r="1.25" fill="#C4C4C4"/>
<circle cx="145.25" cy="129.25" r="1.25" fill="#C4C4C4"/>
<circle cx="145.25" cy="113.25" r="1.25" fill="#C4C4C4"/>
<circle cx="145.25" cy="145.25" r="1.25" fill="#C4C4C4"/>
<circle cx="145.25" cy="177.25" r="1.25" fill="#C4C4C4"/>
<circle cx="145.25" cy="193.25" r="1.25" fill="#C4C4C4"/>
<circle cx="145.25" cy="161.25" r="1.25" fill="#C4C4C4"/>
<circle cx="145.25" cy="49.25" r="1.25" fill="#C4C4C4"/>
<circle cx="145.25" cy="81.25" r="1.25" fill="#C4C4C4"/>
<circle cx="145.25" cy="65.25" r="1.25" fill="#C4C4C4"/>
<circle cx="161.25" cy="1.25" r="1.25" fill="#C4C4C4"/>
<circle cx="161.25" cy="33.25" r="1.25" fill="#C4C4C4"/>
<circle cx="161.25" cy="17.25" r="1.25" fill="#C4C4C4"/>
<circle cx="161.25" cy="97.25" r="1.25" fill="#C4C4C4"/>
<circle cx="161.25" cy="129.25" r="1.25" fill="#C4C4C4"/>
<circle cx="161.25" cy="113.25" r="1.25" fill="#C4C4C4"/>
<circle cx="161.25" cy="145.25" r="1.25" fill="#C4C4C4"/>
<circle cx="161.25" cy="177.25" r="1.25" fill="#C4C4C4"/>
<circle cx="161.25" cy="193.25" r="1.25" fill="#C4C4C4"/>
<circle cx="161.25" cy="161.25" r="1.25" fill="#C4C4C4"/>
<circle cx="161.25" cy="49.25" r="1.25" fill="#C4C4C4"/>
<circle cx="161.25" cy="81.25" r="1.25" fill="#C4C4C4"/>
<circle cx="161.25" cy="65.25" r="1.25" fill="#C4C4C4"/>
<circle cx="177.25" cy="1.25" r="1.25" fill="#C4C4C4"/>
<circle cx="177.25" cy="33.25" r="1.25" fill="#C4C4C4"/>
<circle cx="177.25" cy="17.25" r="1.25" fill="#C4C4C4"/>
<circle cx="177.25" cy="97.25" r="1.25" fill="#C4C4C4"/>
<circle cx="177.25" cy="129.25" r="1.25" fill="#C4C4C4"/>
<circle cx="177.25" cy="113.25" r="1.25" fill="#C4C4C4"/>
<circle cx="177.25" cy="145.25" r="1.25" fill="#C4C4C4"/>
<circle cx="177.25" cy="177.25" r="1.25" fill="#C4C4C4"/>
<circle cx="177.25" cy="193.25" r="1.25" fill="#C4C4C4"/>
<circle cx="177.25" cy="161.25" r="1.25" fill="#C4C4C4"/>
<circle cx="177.25" cy="49.25" r="1.25" fill="#C4C4C4"/>
<circle cx="177.25" cy="81.25" r="1.25" fill="#C4C4C4"/>
<circle cx="177.25" cy="65.25" r="1.25" fill="#C4C4C4"/>
<circle cx="193.25" cy="1.25" r="1.25" fill="#C4C4C4"/>
<circle cx="193.25" cy="33.25" r="1.25" fill="#C4C4C4"/>
<circle cx="193.25" cy="17.25" r="1.25" fill="#C4C4C4"/>
<circle cx="193.25" cy="97.25" r="1.25" fill="#C4C4C4"/>
<circle cx="193.25" cy="129.25" r="1.25" fill="#C4C4C4"/>
<circle cx="193.25" cy="113.25" r="1.25" fill="#C4C4C4"/>
<circle cx="193.25" cy="145.25" r="1.25" fill="#C4C4C4"/>
<circle cx="193.25" cy="177.25" r="1.25" fill="#C4C4C4"/>
<circle cx="193.25" cy="193.25" r="1.25" fill="#C4C4C4"/>
<circle cx="193.25" cy="161.25" r="1.25" fill="#C4C4C4"/>
<circle cx="193.25" cy="49.25" r="1.25" fill="#C4C4C4"/>
<circle cx="193.25" cy="81.25" r="1.25" fill="#C4C4C4"/>
<circle cx="193.25" cy="65.25" r="1.25" fill="#C4C4C4"/>
<circle cx="209.25" cy="1.25" r="1.25" fill="#C4C4C4"/>
<circle cx="209.25" cy="33.25" r="1.25" fill="#C4C4C4"/>
<circle cx="209.25" cy="17.25" r="1.25" fill="#C4C4C4"/>
<circle cx="209.25" cy="97.25" r="1.25" fill="#C4C4C4"/>
<circle cx="209.25" cy="129.25" r="1.25" fill="#C4C4C4"/>
<circle cx="209.25" cy="113.25" r="1.25" fill="#C4C4C4"/>
<circle cx="209.25" cy="145.25" r="1.25" fill="#C4C4C4"/>
<circle cx="209.25" cy="177.25" r="1.25" fill="#C4C4C4"/>
<circle cx="209.25" cy="193.25" r="1.25" fill="#C4C4C4"/>
<circle cx="209.25" cy="161.25" r="1.25" fill="#C4C4C4"/>
<circle cx="209.25" cy="49.25" r="1.25" fill="#C4C4C4"/>
<circle cx="209.25" cy="81.25" r="1.25" fill="#C4C4C4"/>
<circle cx="209.25" cy="65.25" r="1.25" fill="#C4C4C4"/>
<circle cx="225.25" cy="1.25" r="1.25" fill="#C4C4C4"/>
<circle cx="225.25" cy="33.25" r="1.25" fill="#C4C4C4"/>
<circle cx="225.25" cy="17.25" r="1.25" fill="#C4C4C4"/>
<circle cx="225.25" cy="97.25" r="1.25" fill="#C4C4C4"/>
<circle cx="225.25" cy="129.25" r="1.25" fill="#C4C4C4"/>
<circle cx="225.25" cy="113.25" r="1.25" fill="#C4C4C4"/>
<circle cx="225.25" cy="145.25" r="1.25" fill="#C4C4C4"/>
<circle cx="225.25" cy="177.25" r="1.25" fill="#C4C4C4"/>
<circle cx="225.25" cy="193.25" r="1.25" fill="#C4C4C4"/>
<circle cx="225.25" cy="161.25" r="1.25" fill="#C4C4C4"/>
<circle cx="225.25" cy="49.25" r="1.25" fill="#C4C4C4"/>
<circle cx="225.25" cy="81.25" r="1.25" fill="#C4C4C4"/>
<circle cx="225.25" cy="65.25" r="1.25" fill="#C4C4C4"/>
</svg>
