<svg xmlns="http://www.w3.org/2000/svg" width="456" height="743" viewBox="0 0 456 743"><defs><linearGradient id="aso2a" x1="242" x2="241" y1="-8.35" y2="774" gradientUnits="userSpaceOnUse"><stop offset="0" stop-color="#302a57"/><stop offset="1" stop-color="#2a254b"/></linearGradient><clipPath id="aso2b"><path fill="#fff" d="M-9.564 31.105S53.86 6.133 116.433 8.178C179.006 10.224 258.62 57.33 354.969 60.48c117.078 3.828 150.77-79.529 156.356-56.847C516.91 26.314 506 826 506 826l-521-38z"/></clipPath></defs><g><g clip-path="url(#clip-1068)"><path fill="#aba6cc" d="M166.307 19.207S360.067 86.17 449.503-4.737c97.77-99.377 5.971 53.709 5.971 53.709l-232.307 52.46z"/></g><g clip-path="url(#clip-1068)"><path fill="url(#aso2a)" d="M.553 38.144s59.253-26.025 118.535-26.025c59.283 0 136.088 42.824 227.37 42.824 110.923 0 140.23-81.274 146.218-59.623C498.665 16.97 511 774 511 774l-539-1z"/></g><g clip-path="url(#clip-1068)" opacity=".23"><path fill="none" stroke="#7972a5" stroke-linecap="round" stroke-miterlimit="20" stroke-width="4" d="M-9.564 31.105v0S53.86 6.133 116.433 8.178C179.006 10.224 258.62 57.33 354.969 60.48c117.078 3.828 150.77-79.529 156.356-56.847C516.91 26.314 506 826 506 826v0l-521-38v0z" clip-path="url(&quot;#aso2b&quot;)"/></g></g></svg>