<svg xmlns="http://www.w3.org/2000/svg" x="0px"  width="1925" height="720" viewBox="0 0 1925 720"><defs><linearGradient id="2gtra" x1="1043.92" x2="1044.86" y1="-48.85" y2="899.66" gradientUnits="userSpaceOnUse"><stop offset="0" stop-color="#302a57"/><stop offset="1" stop-color="#2a254b"/></linearGradient><clipPath id="2gtrb"><path fill="#fff" d="M-6.43 123.755S251.801 22.079 506.565 30.409c254.764 8.33 578.915 200.12 971.197 212.944 476.682 15.585 613.856-323.804 636.602-231.454 22.745 92.35-86.426 931.165-86.426 931.165L-29.999 875.782z"/></clipPath></defs><g><g clip-path="url(#clip-4748)"><path fill="#aba6cc" d="M888.922 115.655s725.687 222.93 1045-125c349.066-380.35 29 198 29 198l-853 224z"/></g><g clip-path="url(#clip-4748)"><path fill="url(#2gtra)" d="M1.922 147.654s250.437-109.998 501-109.998c250.562 0 575.187 181 961 181 468.82 0 592.687-343.51 618-252.001 25.312 91.51-55 933-55 933h-2024z"/></g><g clip-path="url(#clip-4748)" opacity=".23"><path fill="none" stroke="#7972a5" stroke-linecap="round" stroke-miterlimit="20" stroke-width="4" d="M-6.43 123.755v0S251.801 22.079 506.565 30.409c254.764 8.33 578.915 200.12 971.197 212.944 476.682 15.585 613.856-323.804 636.602-231.454 22.745 92.35-86.426 931.165-86.426 931.165v0L-29.999 875.782v0z" clip-path="url(&quot;#2gtrb&quot;)"/></g></g></svg>