<svg xmlns="http://www.w3.org/2000/svg" width="963" height="1028" viewBox="0 0 963 1028"><defs><clipPath id="a8yba"><path fill="#fff" d="M600 36.998c52.396 44.05 162.76 305.751 207 362 41.136 52.302 118.096 85.026 142 131 30.5 58.659 57.25 233.59-489 468-546.25 234.409-19-982-19-982s77.694-47.353 159 21z"/></clipPath></defs><g><g><path fill="none" stroke="#fdf5fe" stroke-linecap="round" stroke-miterlimit="20" stroke-width="6" d="M600 36.998c52.396 44.05 162.76 305.751 207 362 41.136 52.302 118.096 85.026 142 131 30.5 58.659 57.25 233.59-489 468-546.25 234.409-19-982-19-982v0s77.694-47.353 159 21z" clip-path="url(&quot;#a8yba&quot;)"/></g><g><path fill="#fafbfd" d="M375 218.998c207.107 0 435 160.35 435 360s-227.893 363-435 363S0 780.148 0 580.498c0-199.652 167.893-361.5 375-361.5z"/></g></g></svg>