<svg xmlns="http://www.w3.org/2000/svg" width="481" height="691" viewBox="0 0 481 691"><defs><clipPath id="d6cwa"><path fill="#fff" d="M275.611 19.066c-37.44 25.607-127.42 190.963-160.285 225.155-30.56 31.792-83.448 48.314-102.232 77.065-23.967 36.685-53.116 150.309 291.552 340.859 344.668 190.55 77.162-646.471 77.162-646.471s-48.1-36.345-106.197 3.392z"/></clipPath></defs><g><g><path fill="none" stroke="#fdf5fe" stroke-linecap="round" stroke-miterlimit="20" stroke-width="6" d="M275.611 19.066c-37.44 25.607-127.42 190.963-160.285 225.155-30.56 31.792-83.448 48.314-102.232 77.065-23.967 36.685-53.116 150.309 291.552 340.859 344.668 190.55 77.162-646.471 77.162-646.471v0s-48.1-36.345-106.197 3.392z" clip-path="url(&quot;#d6cwa&quot;)"/></g></g></svg>