<svg width="103px" height="103px" viewBox="6 5 100 103"  xmlns="http://www.w3.org/2000/svg">
<path d="M56.0993 106C83.6594 106 106.001 83.6582 106.001 56.098C106.001 28.5379 83.6594 6.19604 56.0993 6.19604C28.5392 6.19604 6.19727 28.5379 6.19727 56.098C6.19727 83.6582 28.5392 106 56.0993 106Z" fill="#55ACEE"/>
<path d="M86.6666 42.0593C84.5281 43.0076 82.2277 43.6489 79.8153 43.9354C82.2784 42.4596 84.1687 40.1245 85.0609 37.3376C82.7561 38.7048 80.2022 39.6967 77.4864 40.2313C75.3106 37.914 72.2105 36.4658 68.7777 36.4658C62.1915 36.4658 56.8497 41.8076 56.8497 48.3938C56.8497 49.3287 56.9556 50.2387 57.1602 51.1123C47.247 50.615 38.4574 45.8666 32.5739 38.6479C31.5474 40.4092 30.9585 42.4596 30.9585 44.6452C30.9585 48.7825 33.0658 52.435 36.2647 54.5735C34.3103 54.5121 32.4698 53.9757 30.8624 53.08C30.8615 53.1307 30.8615 53.1814 30.8615 53.2312C30.8615 59.0106 34.9748 63.8311 40.4304 64.9261C39.4306 65.2001 38.3747 65.3451 37.2885 65.3451C36.5182 65.3451 35.7718 65.2712 35.0442 65.1325C36.5618 69.8702 40.9659 73.319 46.1867 73.416C42.1037 76.6157 36.9612 78.522 31.3712 78.522C30.4105 78.522 29.4587 78.4659 28.5273 78.3547C33.8033 81.7404 40.0746 83.7143 46.8103 83.7143C68.7501 83.7143 80.7484 65.539 80.7484 49.7753C80.7484 49.2584 80.7368 48.7434 80.7137 48.2328C83.0461 46.5515 85.0681 44.4513 86.6666 42.0593Z" fill="white"/>
</svg>
