<?xml version="1.0" standalone="no"?>
<!DOCTYPE svg PUBLIC "-//W3C//DTD SVG 20010904//EN"
 "http://www.w3.org/TR/2001/REC-SVG-20010904/DTD/svg10.dtd">
<svg version="1.0" xmlns="http://www.w3.org/2000/svg"
 width="1920.000000pt" height="8420.000000pt" viewBox="0 0 1920.000000 8420.000000"
 preserveAspectRatio="xMidYMid meet">
<metadata>
Created by potrace 1.16, written by Peter Selinger 2001-2019
</metadata>
<g transform="translate(0.000000,8420.000000) scale(0.100000,-0.100000)"
fill="#000000" stroke="none">
<path d="M10115 78286 l-28 -36 -34 20 c-19 11 -38 20 -44 20 -11 0 -13 -40
-1 -40 4 0 18 -9 31 -19 l24 -18 -23 -37 c-17 -29 -20 -40 -11 -49 10 -9 17
-6 32 12 11 13 24 31 28 39 7 13 13 12 43 -6 20 -12 40 -22 47 -22 23 0 10 31
-23 52 l-34 22 21 38 c16 28 19 40 11 48 -9 9 -19 2 -39 -24z"/>
<path d="M1530 61213 c1 -10 7 -29 15 -43 20 -35 19 -37 -25 -60 -22 -11 -40
-25 -40 -30 0 -20 24 -21 61 -5 22 10 40 16 42 14 1 -2 10 -21 20 -41 18 -41
47 -51 47 -18 0 12 -7 34 -15 50 -15 29 -15 30 25 50 22 11 40 27 40 35 0 19
-18 19 -64 0 l-36 -15 -17 37 c-19 41 -53 58 -53 26z"/>
<path d="M1701 15995 l-20 -45 -35 15 c-80 34 -110 -1 -31 -36 25 -11 45 -22
45 -25 0 -2 -7 -21 -15 -41 -20 -47 -19 -63 3 -63 11 0 26 16 40 45 l21 44 43
-19 c29 -13 46 -16 55 -9 18 16 6 34 -33 48 -44 16 -50 31 -29 71 9 17 14 38
11 46 -10 27 -35 13 -55 -31z"/>
</g>
</svg>
