<svg xmlns="http://www.w3.org/2000/svg" width="224" height="224" viewBox="0 0 224 224"><defs><mask id="26ybb" width="2.1" height="2.1" x="-1.05" y="-1.05"><path fill="#fff" d="M20.1-2.9h134.8v134.8H20.1z"/><path d="M51 3h73c13.807 0 25 11.193 25 25v73c0 13.807-11.193 25-25 25H51c-13.807 0-25-11.193-25-25V28C26 14.193 37.193 3 51 3z"/></mask><filter id="26yba" width="297.3" height="320.4" x="-49.1" y="-72.1" filterUnits="userSpaceOnUse"><feOffset dx="24.1" dy="47.2" in="SourceGraphic" result="FeOffset1023Out"/><feGaussianBlur in="FeOffset1023Out" result="FeGaussianBlur1024Out" stdDeviation="23.68 23.68"/></filter></defs><g><g><g filter="url(#26yba)"><path fill="none" stroke="#080d3d" stroke-opacity=".1" stroke-width="11.8" d="M51 3h73c13.807 0 25 11.193 25 25v73c0 13.807-11.193 25-25 25H51c-13.807 0-25-11.193-25-25V28C26 14.193 37.193 3 51 3z" mask="url(&quot;#26ybb&quot;)"/><path fill="#080d3d" fill-opacity=".1" d="M51 3h73c13.807 0 25 11.193 25 25v73c0 13.807-11.193 25-25 25H51c-13.807 0-25-11.193-25-25V28C26 14.193 37.193 3 51 3z"/></g><path fill="#aba6cc" d="M51 3h73c13.807 0 25 11.193 25 25v73c0 13.807-11.193 25-25 25H51c-13.807 0-25-11.193-25-25V28C26 14.193 37.193 3 51 3z"/></g><g><g><text fill="#f1f0f3" dominant-baseline="text-before-edge" font-family="FuturaPT-Book" font-size="17" font-style="none" font-weight="400" transform="translate(53 42)"><tspan style="font-kerning:normal" fill="#fff" font-family="'FuturaPT','FuturaPT-Medium'" font-size="30" letter-spacing="-.3">24/7 </tspan><tspan style="line-height:22px;font-kerning:normal">помощь</tspan></text></g></g></g></svg>