<svg id="Capa_1" enable-background="new 0 0 512.001 512.001" height="512" viewBox="0 0 512.001 512.001" width="512" xmlns="http://www.w3.org/2000/svg"><g><path d="m200.372 370.029-83.748-54.481c-4.403-2.862-10.272-1.834-13.437 2.361l-60.16 79.766c-2.335 3.095-2.67 7.261-.86 10.689l51.882 98.304c1.751 3.318 5.181 5.333 8.841 5.333.574 0 1.154-.05 1.733-.152l38.384-6.746h.004c.001 0 .002 0 .003-.001l38.382-6.745c4.276-.751 7.579-4.176 8.175-8.477l15.253-110.096c.532-3.84-1.203-7.64-4.452-9.755zm-86.835-32.629 63.505 41.312-50.09 35.034-59.033-15.862zm-5.201 153.49-37.782-71.587 49.561 13.317 9.584 54.516zm62.425-10.97-21.364 3.754-9.584-54.516 42.055-29.415z"/><path d="m508.656 373.496-3.198-91.554c-.184-5.251-4.398-9.464-9.648-9.646l-91.539-3.169c-3.258-.173-6.757 1.375-8.613 4.112l-123.345 167.558c-2.193 2.98-2.563 6.929-.958 10.264l16.443 34.186c.983 2.045 2.634 3.694 4.679 4.678l34.191 16.44c1.376.661 2.857.987 4.332.987 2.096 0 4.178-.658 5.927-1.944l167.666-123.333c2.675-1.964 4.24-5.263 4.063-8.579zm-216.671 74.315 108.749-147.731 16.757 46.058-117.78 117.735zm37.933 37.923-16.062-7.723 117.777-117.732 46.063 16.753zm106.951-144.832-18.656-51.279 67.583 2.339 2.361 67.593z"/><path d="m332.942 136.724 81.338 39.968c1.391.684 2.9 1.025 4.41 1.025s3.021-.342 4.411-1.025l81.31-39.968c4.455-2.19 6.629-7.316 5.107-12.041l-37.933-117.749c-1.332-4.132-5.177-6.934-9.519-6.934h-86.781c-4.342 0-8.188 2.802-9.519 6.934l-37.933 117.749c-1.522 4.725.654 9.852 5.109 12.041zm95.748-116.724h26.092l27.413 85.092-53.505-32.828zm50.611 106.781-60.611 29.793-60.632-29.793 60.632-37.189zm-96.732-106.781h26.121v52.262l-53.535 32.836z"/><path d="m245.637 105.859c5.522 0 10-4.478 10-10v-6.548c0-5.522-4.478-10-10-10s-10 4.478-10 10v6.548c0 5.523 4.478 10 10 10z"/><path d="m245.637 40.013c5.522 0 10-4.478 10-10v-6.577c0-5.522-4.478-10-10-10s-10 4.478-10 10v6.577c0 5.522 4.478 10 10 10z"/><path d="m275.293 69.662h6.549c5.522 0 10-4.478 10-10s-4.478-10-10-10h-6.549c-5.522 0-10 4.478-10 10s4.477 10 10 10z"/><path d="m209.405 69.662h6.55c5.522 0 10-4.478 10-10s-4.478-10-10-10h-6.55c-5.522 0-10 4.478-10 10s4.478 10 10 10z"/><path d="m87.242 280.414c5.522 0 10-4.478 10-10s-4.478-10-10-10h-6.549c-5.522 0-10 4.478-10 10s4.478 10 10 10z"/><path d="m51.039 250.764c5.522 0 10-4.478 10-10v-6.548c0-5.522-4.478-10-10-10s-10 4.478-10 10v6.548c0 5.522 4.477 10 10 10z"/><path d="m21.384 260.414h-6.549c-5.522 0-10 4.478-10 10s4.478 10 10 10h6.549c5.522 0 10-4.478 10-10s-4.478-10-10-10z"/><path d="m41.039 306.611c0 5.522 4.478 10 10 10s10-4.478 10-10v-6.548c0-5.522-4.478-10-10-10s-10 4.478-10 10z"/><path d="m352.058 178.119c0-5.522-4.478-10-10-10s-10 4.478-10 10v6.577c0 5.522 4.478 10 10 10s10-4.478 10-10z"/><path d="m342.058 233.995c-5.522 0-10 4.478-10 10v6.548c0 5.522 4.478 10 10 10s10-4.478 10-10v-6.548c0-5.522-4.477-10-10-10z"/><path d="m371.713 204.346c-5.522 0-10 4.478-10 10s4.478 10 10 10h6.55c5.522 0 10-4.478 10-10s-4.478-10-10-10z"/><path d="m305.826 224.346h6.577c5.522 0 10-4.478 10-10s-4.478-10-10-10h-6.577c-5.522 0-10 4.478-10 10s4.477 10 10 10z"/><path d="m227.749 330.201h-6.55c-5.522 0-10 4.478-10 10s4.478 10 10 10h6.55c5.522 0 10-4.478 10-10s-4.478-10-10-10z"/><path d="m257.403 294.004c-5.522 0-10 4.478-10 10v6.548c0 5.522 4.478 10 10 10s10-4.478 10-10v-6.548c0-5.523-4.477-10-10-10z"/><path d="m257.403 359.852c-5.522 0-10 4.478-10 10v6.548c0 5.522 4.478 10 10 10s10-4.478 10-10v-6.548c0-5.523-4.477-10-10-10z"/><path d="m277.087 340.201c0 5.522 4.478 10 10 10h6.549c5.522 0 10-4.478 10-10s-4.478-10-10-10h-6.549c-5.523 0-10 4.478-10 10z"/><path d="m127.616 24.396c-1.957-2.658-5.093-4.164-8.399-4.065l-103.962 3.6c-5.252.182-9.467 4.396-9.648 9.647l-3.601 103.943c-.114 3.301 1.408 6.444 4.068 8.401l189.978 139.774c1.749 1.287 3.831 1.945 5.927 1.945 1.474 0 2.954-.325 4.33-.986l38.756-18.624c2.023-.967 3.708-2.655 4.679-4.676l18.655-38.749c1.605-3.336 1.237-7.285-.957-10.267zm-102.345 19.199 79.827-2.764-22.03 60.549-60.561 22.026zm212.565 198.387-46.592-46.584c-3.906-3.906-10.237-3.905-14.142.001-3.905 3.905-3.904 10.237.001 14.142l46.584 46.576-20.624 9.911-170.093-125.146 55.334-20.125 25.293 25.288c1.952 1.953 4.512 2.929 7.07 2.929 2.56 0 5.119-.977 7.071-2.93 3.905-3.905 3.904-10.237-.001-14.142l-25.292-25.287 20.13-55.328 125.191 170.065z"/><path d="m145.378 177.821c1.949 1.949 4.499 2.922 7.051 2.922 2.56 0 5.121-.98 7.077-2.937 3.905-3.905 3.892-10.251-.014-14.156-3.906-3.904-10.236-3.904-14.143 0-3.905 3.905-3.905 10.237 0 14.143z"/></g></svg>