<?xml version="1.0" encoding="iso-8859-1"?>
<!-- Generator: Adobe Illustrator 21.0.0, SVG Export Plug-In . SVG Version: 6.00 Build 0)  -->
<svg xmlns="http://www.w3.org/2000/svg" xmlns:xlink="http://www.w3.org/1999/xlink" version="1.1" id="Capa_1" x="0px" y="0px" viewBox="0 0 511.979 511.979" style="enable-background:new 0 0 511.979 511.979;" xml:space="preserve" width="512" height="512">
<g>
	<path d="M511.156,303.875l-41.196-79.46c-2.013-3.885-6.968-5.249-10.698-2.867c-2.642,1.69-74.727,47.779-75.455,48.251   c-3.285,2.133-3.361,5.637-3.393,5.738l-13.641,186.83c-0.18,2.457,0.859,4.845,2.778,6.389   c0.101,0.081,21.568,17.355,21.465,17.273c1.752,1.402,3.996,1.865,5.926,1.539l27.105-4.209c2.434-0.378,4.527-1.927,5.6-4.144   l23.626-48.821c1.804-3.729,0.245-8.214-3.484-10.018c-3.729-1.804-8.214-0.245-10.018,3.484l-21.913,45.281l-11.938,1.854   l40.983-152.95l45.296-2.521l-37.182,76.831c-1.804,3.729-0.245,8.214,3.484,10.018c3.728,1.802,8.213,0.244,10.018-3.484   c0.068-0.141,42.797-88.438,42.736-88.312C512.221,308.574,512.251,305.987,511.156,303.875z M436.501,298.91l-34.795-22.757   l49.347-31.553L436.501,298.91z M394.447,289.33l37.967,24.831l-40.983,152.95l-9.411-7.575L394.447,289.33z M465.542,248.483   l26.959,52l-41.512,2.31L465.542,248.483z"/>
	<path d="M386.147,144.425l0.013-0.06c0.595-2.658-0.332-5.385-2.219-7.138L261.097,23.314c-2.847-2.64-7.313-2.676-10.199,0   c-28.57,26.496-122.409,113.501-122.963,114.039c-1.878,1.826-2.673,4.455-2.082,7.096l71.579,319.742   c0.475,2.121,1.847,3.932,3.761,4.963c40.812,21.967,39.18,21.504,41.791,21.504h26.027c2.988,0,3.572-1.069,41.791-21.504   c1.914-1.031,3.286-2.842,3.761-4.963l71.579-319.742C386.144,144.441,386.146,144.433,386.147,144.425z M313.789,192.769   L271.268,53.202l96.54,89.522L313.789,192.769z M198.207,192.769l-54.02-50.045l96.54-89.522L198.207,192.769z M145.738,164.609   l49.123,45.508l38.507,259.338l-22.045-11.881L145.738,164.609z M249.453,475.658l-38.865-261.751h12.696   c4.142,0,7.5-3.358,7.5-7.5s-3.358-7.5-7.5-7.5h-11.266l43.98-144.358l43.98,144.358h-41.695c-4.142,0-7.5,3.358-7.5,7.5   s3.358,7.5,7.5,7.5h43.124l-38.865,261.751H249.453z M300.673,457.573l-22.045,11.881l38.507-259.338l49.123-45.508   L300.673,457.573z"/>
	<path d="M131.447,274.588c-0.404-1.989-1.627-3.751-3.305-4.824l-75.407-48.216c-3.732-2.39-8.692-1.004-10.698,2.867   c-0.056,0.108-41.263,79.593-41.206,79.481c-1.806,3.515-0.106,6.598-0.083,6.698l81.602,168.62c1.073,2.217,3.166,3.766,5.6,4.144   c0.222,0.035,27.301,4.24,27.2,4.224c1.895,0.294,4.127-0.189,5.832-1.554c0.931-0.745,21.363-17.191,21.465-17.273   c1.919-1.544,2.958-3.932,2.778-6.389C130.748,264.142,131.603,275.357,131.447,274.588z M46.454,248.483l14.552,54.31   l-41.512-2.31L46.454,248.483z M60.943,244.6l49.347,31.553L75.495,298.91L60.943,244.6z M120.564,467.111l-10.404-38.828   c-1.072-4.001-5.183-6.372-9.186-5.303c-4.001,1.072-6.375,5.185-5.303,9.186l10.404,38.827l-11.938-1.854L19.796,315.523   l45.296,2.521l21.52,80.314c1.073,4.003,5.184,6.374,9.186,5.304c4.001-1.072,6.375-5.185,5.304-9.186l-21.52-80.315l37.967-24.831   l12.427,170.206L120.564,467.111z"/>
	<path d="M460.641,129.815h14.857c4.142,0,7.5-3.358,7.5-7.5s-3.358-7.5-7.5-7.5h-14.857c-4.142,0-7.5,3.358-7.5,7.5   S456.499,129.815,460.641,129.815z"/>
	<path d="M408.283,122.315c0,4.142,3.358,7.5,7.5,7.5h14.857c4.142,0,7.5-3.358,7.5-7.5s-3.358-7.5-7.5-7.5h-14.857   C411.641,114.815,408.283,118.172,408.283,122.315z"/>
	<path d="M445.641,129.815c-4.142,0-7.5,3.358-7.5,7.5v14.857c0,4.142,3.358,7.5,7.5,7.5s7.5-3.358,7.5-7.5v-14.857   C453.141,133.172,449.783,129.815,445.641,129.815z"/>
	<path d="M445.641,113.815c4.142,0,7.5-3.358,7.5-7.5V92.458c0-4.142-3.358-7.5-7.5-7.5s-7.5,3.358-7.5,7.5v13.857   C438.141,110.457,441.499,113.815,445.641,113.815z"/>
	<path d="M370.28,79.312h10.771c4.142,0,7.5-3.358,7.5-7.5s-3.358-7.5-7.5-7.5H370.28c-4.142,0-7.5,3.358-7.5,7.5   S366.138,79.312,370.28,79.312z"/>
	<path d="M408.515,79.312h10.771c4.142,0,7.5-3.358,7.5-7.5s-3.358-7.5-7.5-7.5h-10.771c-4.142,0-7.5,3.358-7.5,7.5   S404.373,79.312,408.515,79.312z"/>
	<path d="M394.783,78.044c-4.142,0-7.5,3.358-7.5,7.5v10.771c0,4.142,3.358,7.5,7.5,7.5s7.5-3.358,7.5-7.5V85.544   C402.283,81.401,398.926,78.044,394.783,78.044z"/>
	<path d="M394.783,64.797c4.142,0,7.5-3.358,7.5-7.5v-9.989c0-4.142-3.358-7.5-7.5-7.5s-7.5,3.358-7.5,7.5v9.989   C387.283,61.44,390.641,64.797,394.783,64.797z"/>
</g>















</svg>
