<svg id="Capa_1" enable-background="new 0 0 512 512" height="512" viewBox="0 0 512 512" width="512" xmlns="http://www.w3.org/2000/svg"><g><path d="m126.88 456.256c-5.523 0-10 4.478-10 10v.028c0 5.522 4.477 9.986 10 9.986s10-4.492 10-10.015-4.477-9.999-10-9.999z"/><path d="m206.81 456.284c-5.523 0-10 4.478-10 10v.057c0 5.522 4.477 9.972 10 9.972s10-4.506 10-10.028-4.477-10.001-10-10.001z"/><path d="m169.226 438.512c-5.523 0-10 4.478-10 10v.028c0 5.522 4.477 9.986 10 9.986s10-4.492 10-10.015-4.477-9.999-10-9.999z"/><path d="m325.399 113.06h.057c5.523 0 9.972-4.478 9.972-10s-4.505-10-10.028-10-10 4.478-10 10 4.476 10 9.999 10z"/><path d="m452.545 162.594c-.889-.729-1.681-1.368-2.386-1.936-.57-.46-1.178-.95-1.685-1.37.009-.485.024-1.027.039-1.54.039-1.396.087-3.131.092-5.298l.045-39.638c11.86-1.68 21.014-11.906 21.014-24.237v-64.119c0-13.485-10.971-24.456-24.455-24.456h-239.59c-13.5 0-24.484 10.971-24.484 24.456v64.119c0 12.325 9.154 22.546 21.02 24.235l.068 39.628c0 2.153.044 3.887.08 5.28.013.52.027 1.068.035 1.559-.509.422-1.121.915-1.694 1.378-.706.568-1.499 1.208-2.38 1.932-15.797 12.935-26.651 30.349-31.332 49.619-.001.004-.002.009-.003.013-1.708 7.034-2.6 14.313-2.6 21.714v68.598 63.041 19.753c-21.15 1.812-39.825 15.226-48.345 34.519-18.247 1.796-34.472 13.02-42.556 29.471-24.491 3.086-44.028 27.466-47.802 51.109-.461 2.891.367 5.839 2.267 8.066s4.68 3.51 7.608 3.51h267.423 147.869c19.689 0 35.708-16.02 35.708-35.71v-110.69-63.07-68.598c-.001-27.666-12.38-53.671-33.956-71.338zm-241.602 15.461c.84-.69 1.588-1.293 2.253-1.83 7.503-6.049 9.357-8.918 9.1-19.015-.033-1.289-.073-2.849-.073-4.789l-.068-39.361h58.348c5.523 0 10-4.478 10-10s-4.477-10-10-10h-68.364c-.006 0-.012 0-.018 0h-6.502c-2.431 0-4.484-2.054-4.484-4.484v-64.12c0-2.415 2.053-4.456 4.484-4.456h42.804v27.417c0 5.522 4.477 10 10 10s10-4.478 10-10v-27.417h46.976v27.417c0 5.522 4.477 10 10 10s10-4.478 10-10v-27.417h47.005v27.417c0 5.522 4.477 10 10 10s10-4.478 10-10v-27.417h42.804c2.415 0 4.455 2.041 4.455 4.456v64.119c0 2.431-2.04 4.484-4.455 4.484h-6.536c-.004 0-.007 0-.012 0h-68.365c-5.523 0-10 4.478-10 10s4.477 10 10 10h58.354l-.045 39.357c-.004 1.925-.048 3.485-.084 4.776-.281 10.104 1.572 12.978 9.085 19.034.665.536 1.412 1.139 2.259 1.834 9.758 7.99 17.111 18.144 21.594 29.457-61.379 27.125-106.674 12.709-150.534-1.257-35.99-11.461-73.025-23.248-115.923-10.009 4.196-6.805 9.553-12.966 15.942-18.196zm-161.901 313.945c6.05-12.797 18.049-23.634 30.679-22.985 4.489.235 8.572-2.564 9.993-6.825 4.646-13.938 18.167-23.225 32.87-22.566 4.608.216 8.739-2.755 10.036-7.17 4.734-16.101 19.787-27.346 36.606-27.346 16.803 0 31.844 11.245 36.578 27.346 1.297 4.415 5.443 7.381 10.036 7.17 14.7-.644 28.224 8.628 32.87 22.566 1.42 4.262 5.523 7.055 9.993 6.825 12.628-.662 24.628 10.189 30.679 22.985zm417.458-15.71c0 8.662-7.046 15.71-15.708 15.71h-139.996c-6.492-20.715-24.217-39.969-45.799-42.686-8.085-16.452-24.308-27.676-42.556-29.471-7.115-16.116-21.312-28.13-38.113-32.708v-11.564l282.172.026zm0-120.691-282.172-.026v-43.043h282.172zm0-63.069h-282.172v-58.598c0-4.274.383-8.496 1.119-12.629 43.592-20.13 78.82-8.91 119.409 4.014 26.542 8.452 55.074 17.539 87.894 17.539 22.266 0 46.507-4.185 73.436-15.586.204 2.203.314 4.425.314 6.661z"/></g></svg>