<svg id="Capa_1" enable-background="new 0 0 512 512" height="512" viewBox="0 0 512 512" width="512" xmlns="http://www.w3.org/2000/svg" fill="#fff"><path d="m416.616 338.404c-13.337 0-25.901 3.363-36.9 9.274l-39.983-39.983c8.302-13.395 13.213-28.452 14.395-44.196h16.343c3.489 17.265 18.777 30.305 37.055 30.305 20.846 0 37.805-16.959 37.805-37.805s-16.959-37.805-37.805-37.805c-18.278 0-33.566 13.04-37.055 30.305h-16.343c-1.182-15.746-6.093-30.804-14.394-44.196l15.58-15.58c2.929-2.929 2.929-7.678 0-10.606-2.929-2.929-7.678-2.929-10.606 0l-13.923 13.923c-3.323-3.888-6.938-7.503-10.823-10.824l53.381-53.381c1.607 1.955 3.318 3.854 5.144 5.68s3.725 3.536 5.68 5.144l-14.655 14.655c-2.929 2.929-2.929 7.677 0 10.606 1.464 1.465 3.384 2.197 5.303 2.197s3.839-.732 5.303-2.197l16.761-16.761c11.49 6.143 24.198 9.227 36.911 9.227 20.028 0 40.057-7.624 55.304-22.871 14.771-14.772 22.906-34.413 22.906-55.304s-8.135-40.532-22.908-55.304c-14.772-14.772-34.412-22.907-55.303-22.907s-40.532 8.135-55.304 22.908c-24.926 24.925-29.466 62.623-13.644 92.215l-57.145 57.145c-13.395-8.302-28.452-13.213-44.196-14.394v-36.546c17.265-3.489 30.305-18.777 30.305-37.055 0-20.846-16.959-37.805-37.805-37.805s-37.805 16.959-37.805 37.805c0 18.278 13.04 33.566 30.305 37.055v36.546c-15.746 1.182-30.804 6.094-44.196 14.394l-44.955-44.954c4.372-9.142 6.671-19.194 6.671-29.403 0-37.556-30.554-68.11-68.11-68.11-11.125 0-22.167 2.745-31.932 7.938-3.657 1.945-5.045 6.486-3.101 10.144 1.945 3.657 6.486 5.046 10.144 3.101 7.604-4.046 16.211-6.184 24.889-6.184 29.285 0 53.11 23.825 53.11 53.11 0 6.371-1.147 12.661-3.348 18.57-3.564-2.234-7.681-3.45-11.992-3.45-6.047 0-11.734 2.357-16.013 6.637-4.28 4.28-6.637 9.969-6.637 16.019 0 4.308 1.216 8.423 3.45 11.987-5.909 2.201-12.199 3.348-18.57 3.348-29.285 0-53.11-23.825-53.11-53.11 0-8.805 2.197-17.523 6.354-25.212 1.97-3.644.613-8.194-3.031-10.165-3.645-1.97-8.195-.613-10.165 3.031-5.337 9.873-8.158 21.058-8.158 32.345 0 37.556 30.554 68.11 68.11 68.11 10.209 0 20.261-2.298 29.403-6.671l44.955 44.955c-8.302 13.395-13.213 28.452-14.394 44.196h-83.014c-3.489-17.265-18.777-30.305-37.055-30.305-20.846 0-37.805 16.959-37.805 37.805s16.959 37.805 37.805 37.805c18.278 0 33.566-13.04 37.055-30.305h83.013c1.182 15.746 6.093 30.804 14.394 44.196l-33.518 33.518c-2.929 2.929-2.929 7.678 0 10.606 1.464 1.464 3.384 2.197 5.303 2.197s3.839-.732 5.303-2.197l31.86-31.86c3.322 3.888 6.938 7.503 10.823 10.824l-87.985 87.985c-3.117-4.065-6.758-7.706-10.823-10.823l31.348-31.349c2.929-2.929 2.929-7.678 0-10.606-2.929-2.929-7.678-2.929-10.606 0l-34.232 34.232c-6.717-2.725-14.049-4.24-21.732-4.24-31.986.001-58.008 26.023-58.008 58.009s26.022 58.008 58.008 58.008 58.008-26.022 58.008-58.008c0-7.683-1.515-15.015-4.24-21.732l92.528-92.527c13.395 8.302 28.452 13.213 44.196 14.394v36.546c-17.265 3.489-30.305 18.777-30.305 37.055 0 20.846 16.959 37.805 37.805 37.805s37.805-16.959 37.805-37.805c0-18.278-13.04-33.566-30.305-37.055v-36.546c15.744-1.181 30.8-6.093 44.196-14.395l39.983 39.983c-5.911 10.999-9.274 23.563-9.274 36.9 0 43.126 35.085 78.211 78.211 78.211s78.211-35.085 78.211-78.211-35.085-78.211-78.211-78.211zm-27.525-304.89c11.94-11.939 27.813-18.514 44.698-18.514s32.758 6.575 44.697 18.514 18.514 27.813 18.514 44.697-6.575 32.758-18.514 44.697c-24.647 24.645-64.749 24.646-89.395 0s-24.646-64.748 0-89.394zm-331.083 463.486c-23.715 0-43.008-19.293-43.008-43.008 0-23.714 19.293-43.008 43.008-43.008 23.714 0 43.008 19.293 43.008 43.008s-19.293 43.008-43.008 43.008zm349.516-263.805c12.575 0 22.805 10.23 22.805 22.805s-10.23 22.805-22.805 22.805-22.804-10.23-22.804-22.805 10.23-22.805 22.804-22.805zm-174.329-148.923c0-12.575 10.23-22.805 22.805-22.805s22.805 10.23 22.805 22.805-10.23 22.805-22.805 22.805-22.805-10.23-22.805-22.805zm-102.921 46.001c1.446-1.446 3.366-2.243 5.406-2.243 2.046 0 3.97.797 5.417 2.244l50.943 50.943c-3.888 3.323-7.503 6.938-10.824 10.823l-50.943-50.944c-1.447-1.446-2.244-3.368-2.244-5.411s.798-3.965 2.245-5.412zm-92.469 148.532c-12.575 0-22.805-10.23-22.805-22.805s10.23-22.805 22.805-22.805 22.805 10.23 22.805 22.805-10.231 22.805-22.805 22.805zm241 148.923c0 12.575-10.23 22.805-22.805 22.805s-22.805-10.23-22.805-22.805 10.23-22.805 22.805-22.805 22.805 10.23 22.805 22.805zm-22.805-88.318c-17.456 0-34.164-5.332-48.326-15.424-7.626-5.419-14.241-12.034-19.666-19.669-10.087-14.153-15.418-30.861-15.418-48.317s5.332-34.164 15.424-48.326c5.419-7.626 12.034-14.241 19.669-19.666 14.153-10.086 30.861-15.418 48.317-15.418s34.164 5.332 48.326 15.424c7.626 5.419 14.241 12.034 19.666 19.669 10.086 14.153 15.418 30.861 15.418 48.317 0 14.437-3.657 28.358-10.625 40.75l-2.832-2.832c-4.28-4.28-9.967-6.638-16.014-6.638-6.053 0-11.744 2.357-16.023 6.637-4.28 4.28-6.637 9.969-6.637 16.019s2.357 11.739 6.637 16.018l2.833 2.833c-12.391 6.966-26.312 10.623-40.749 10.623zm48.523-24.064c-1.447-1.446-2.244-3.368-2.244-5.411s.797-3.965 2.244-5.412c1.446-1.446 3.37-2.243 5.416-2.243 2.04 0 3.96.797 5.407 2.244l51.669 51.668c-3.95 3.248-7.576 6.874-10.824 10.824zm112.093 164.481c-34.855 0-63.211-28.356-63.211-63.211s28.356-63.211 63.211-63.211 63.211 28.356 63.211 63.211-28.356 63.211-63.211 63.211z"/></svg>
