<?xml version="1.0" encoding="iso-8859-1"?>
<!-- Generator: Adobe Illustrator 19.0.0, SVG Export Plug-In . SVG Version: 6.00 Build 0)  -->
<svg version="1.1" id="Capa_1" xmlns="http://www.w3.org/2000/svg" xmlns:xlink="http://www.w3.org/1999/xlink" x="0px" y="0px"
	 viewBox="0 0 496 496" style="enable-background:new 0 0 496 496;" xml:space="preserve" fill="#fff">
<g>
	<g>
		<g>
			<path d="M392.112,155.112L336,115.832V80h-16v44.168l62.936,44.056c8.176,5.72,13.8,14.248,16.008,23.776H112v16h288v232
				c0,22.056-17.944,40-40,40H136c-19.312,0-35.472-13.768-39.192-32H384v-16H96V200.992c0-13.04,6.384-25.296,17.064-32.768
				L176,124.168V80h-16v35.832l-56.112,39.28C88.928,165.584,80,182.736,80,200.992V440c0,30.88,25.128,56,56,56h224
				c30.872,0,56-25.12,56-56V200.992C416,182.736,407.072,165.584,392.112,155.112z"/>
			<path d="M192,131.832l-44.584,31.216l9.168,13.112l44.584-31.208c4.28-3,6.832-7.896,6.832-13.12V112h-16V131.832z"/>
			<path d="M352,24c0-13.232-10.768-24-24-24H168c-13.232,0-24,10.768-24,24v40h208V24z M336,48H160V24c0-4.408,3.584-8,8-8h160
				c4.416,0,8,3.592,8,8V48z"/>
			<path d="M216,288c-13.232,0-24,10.768-24,24s10.768,24,24,24s24-10.768,24-24S229.232,288,216,288z M216,320
				c-4.416,0-8-3.592-8-8c0-4.408,3.584-8,8-8s8,3.592,8,8C224,316.408,220.416,320,216,320z"/>
			<path d="M280,288c-13.232,0-24,10.768-24,24s10.768,24,24,24s24-10.768,24-24S293.232,288,280,288z M280,320
				c-4.416,0-8-3.592-8-8c0-4.408,3.584-8,8-8c4.416,0,8,3.592,8,8C288,316.408,284.416,320,280,320z"/>
			<path d="M248,224c-48.52,0-88,39.48-88,88c0,26.488,11.608,50.96,32,67.768V392c0,13.232,10.768,24,24,24h64
				c13.232,0,24-10.768,24-24v-12.232c20.392-16.808,32-41.288,32-67.768C336,263.48,296.52,224,248,224z M291.184,369.504
				L288,371.896V392c0,4.408-3.584,8-8,8h-64c-4.416,0-8-3.592-8-8v-20.104l-3.184-2.4C186.496,355.72,176,334.76,176,312
				c0-39.696,32.296-72,72-72s72,32.304,72,72C320,334.76,309.504,355.72,291.184,369.504z"/>

				<rect x="147.017" y="396.021" transform="matrix(-0.7071 0.7071 -0.7071 -0.7071 565.6332 573.7495)" width="33.944" height="16"/>
			<rect x="324.683" y="223.982" transform="matrix(0.7071 -0.7071 0.7071 0.7071 -65.6254 305.529)" width="22.624" height="16"/>

				<rect x="315.032" y="396.04" transform="matrix(-0.7071 -0.7071 0.7071 -0.7071 281.0665 924.5009)" width="33.944" height="16"/>

				<rect x="148.705" y="223.999" transform="matrix(-0.7071 -0.7071 0.7071 -0.7071 109.1175 509.1964)" width="22.624" height="16"/>
			<rect x="192" y="80" width="16" height="16"/>
		</g>
	</g>
</g>
<g>
</g>
<g>
</g>
<g>
</g>
<g>
</g>
<g>
</g>
<g>
</g>
<g>
</g>
<g>
</g>
<g>
</g>
<g>
</g>
<g>
</g>
<g>
</g>
<g>
</g>
<g>
</g>
<g>
</g>
</svg>
