<svg id="Capa_1" enable-background="new 0 0 512 512" height="512" viewBox="0 0 512 512" width="512" xmlns="http://www.w3.org/2000/svg"><g><path d="m476.992 320.331v-76.052c0-5.523-4.477-10-10-10h-131.073c-5.523 0-10 4.477-10 10v76.052c0 38.258 28.592 69.942 65.522 74.853v45.505c-29.497 4.801-52.089 30.461-52.089 61.311 0 5.523 4.477 10 10 10h104.207c5.523 0 10-4.477 10-10 0-30.852-22.605-56.513-52.118-61.312v-45.504c36.946-4.909 65.551-36.594 65.551-74.853zm-131.073-66.052h111.073v33.854c-24.265 7.774-42.015 3.245-60.713-1.54-15.606-3.992-31.642-8.091-50.36-4.213zm96.441 237.721h-81.81c4.496-18.419 21.124-32.128 40.892-32.128 19.78 0 36.419 13.709 40.918 32.128zm-40.919-116.133c-30.615 0-55.522-24.913-55.522-55.536v-17.355c16.005-4.521 29.759-1.009 45.402 2.993 11.994 3.069 24.882 6.367 39.801 6.367 7.984 0 16.551-.948 25.871-3.378v11.373c-.001 30.623-24.921 55.536-55.552 55.536z"/><path d="m91.857 319.934c0 25.794 28.767 46 65.49 46 36.724 0 65.49-20.206 65.49-46s-28.767-45.999-65.49-45.999-65.49 20.205-65.49 45.999zm65.49-25.999c26.808 0 45.49 13.702 45.49 25.999s-18.682 26-45.49 26-45.49-13.702-45.49-26 18.682-25.999 45.49-25.999z"/><path d="m262.369 263.494-53.474-44.527c-4.15-3.46-5.868-4.892-5.868-15.251v-7.228c0-5.523-4.477-10-10-10s-10 4.477-10 10v7.228c0 14.748 3.296 22.472 13.066 30.617l53.648 44.673c.119.099.24.195.363.289 11.107 8.408 10.377 15.551 8.922 29.783-.105 1.027-.211 2.066-.313 3.114l-7.619 78.274h-187.382l-7.619-78.271c-.102-1.051-.208-2.09-.313-3.118-1.455-14.231-2.186-21.375 8.922-29.783.123-.093.245-.189.363-.289l53.636-44.663c9.8-8.134 13.107-15.862 13.107-30.627v-133.429h51.219v38.642c0 5.523 4.477 10 10 10s10-4.477 10-10v-42.17c3.657-2.937 6.008-7.437 6.008-12.481v-38.268c0-8.827-7.181-16.009-16.007-16.009h-71.219c-8.827 0-16.008 7.182-16.008 16.009v38.267c0 5.045 2.351 9.545 6.008 12.481v136.958c0 10.356-1.722 11.785-5.893 15.248l-53.478 44.531c-19.871 15.162-18.11 32.402-16.554 47.617.102.993.205 1.998.303 3.018l16.805 172.643c1.382 14.382 12.619 25.228 26.136 25.228h156.551c13.518 0 24.754-10.846 26.135-25.217l16.806-172.658c.099-1.017.202-2.021.303-3.014 1.556-15.215 3.317-32.455-16.554-47.617zm-136.568-243.494h63.235v30.286h-63.235zm116.106 464.857c-.341 3.549-2.59 7.143-6.228 7.143h-156.551c-3.638 0-5.887-3.593-6.229-7.154l-3.286-33.761h175.582zm5.234-53.773h-179.475l-2.007-20.62h183.49z"/><path d="m193.028 143.855c-5.523 0-10 4.477-10 10v.028c0 5.523 4.477 9.986 10 9.986s10-4.491 10-10.014-4.477-10-10-10z"/></g></svg>