<svg xmlns="http://www.w3.org/2000/svg" width="483" height="533" viewBox="0 0 484 533"><defs><mask id="nc2gb" width="2.04" height="2.04" x="-1.02" y="-1.02"><path fill="#fff" d="M19 12h408v458H19z"/><path d="M47 20.875h352c11.046 0 20 8.954 20 20v401c0 11.046-8.954 20-20 20H47c-11.046 0-20-8.954-20-20v-401c0-11.046 8.954-20 20-20z"/></mask><filter id="nc2ga" width="544.7" height="600.8" x="-40" y="-47" filterUnits="userSpaceOnUse"><feOffset dx="18.7" dy="24.8" in="SourceGraphic" result="FeOffset1023Out"/><feGaussianBlur in="FeOffset1023Out" result="FeGaussianBlur1024Out" stdDeviation="19.6 19.6"/></filter><clipPath id="nc2gc"><path d="M47 20.875h352c11.046 0 20 8.954 20 20v401c0 11.046-8.954 20-20 20H47c-11.046 0-20-8.954-20-20v-401c0-11.046 8.954-20 20-20z"/></clipPath></defs><g><g><g filter="url(#nc2ga)"><path fill="none" stroke="#120f23" stroke-opacity=".12" stroke-width="16" d="M47 20.875h352c11.046 0 20 8.954 20 20v401c0 11.046-8.954 20-20 20H47c-11.046 0-20-8.954-20-20v-401c0-11.046 8.954-20 20-20z" mask="url(&quot;#nc2gb&quot;)"/><path fill="#120f23" fill-opacity=".12" d="M47 20.875h352c11.046 0 20 8.954 20 20v401c0 11.046-8.954 20-20 20H47c-11.046 0-20-8.954-20-20v-401c0-11.046 8.954-20 20-20z"/></g><path fill="#3c3664" d="M47 20.875h352c11.046 0 20 8.954 20 20v401c0 11.046-8.954 20-20 20H47c-11.046 0-20-8.954-20-20v-401c0-11.046 8.954-20 20-20z"/></g><g clip-path="url(#nc2gc)" opacity=".49"><path fill="#4b4171" d="M456 295.86s-20.834-26.066-90 14c-69.167 40.065-183.084 112.934-346 108-162.917-4.936 2 64 2 64l420-8z"/></g><g clip-path="url(#nc2gc)"><path fill="#4b4770" d="M24 388.162s23.49-10.14 41-7.99c39.598 4.86 217.735 98.68 364 78.904 11.908-1.61 13 162.802 13 162.802L31 636.86z"/></g></g></svg>